<svg xmlns="http://www.w3.org/2000/svg" xmlns:xlink="http://www.w3.org/1999/xlink" width="500" zoomAndPan="magnify" viewBox="0 0 375 374.999991" height="500" preserveAspectRatio="xMidYMid meet" version="1.0"><defs><clipPath id="949b989da1"><path d="M 37 4.453125 L 59 4.453125 L 59 23 L 37 23 Z M 37 4.453125 " clip-rule="nonzero"/></clipPath><clipPath id="b8171e8515"><path d="M 37 4.453125 L 59 4.453125 L 59 23 L 37 23 Z M 37 4.453125 " clip-rule="nonzero"/></clipPath></defs><path fill="#000000" d="M 372.171875 133.0625 C 375 124.363281 367.636719 117.445312 362.355469 111.5 C 355.4375 103.839844 347.628906 97.074219 339.375 90.828125 C 337.589844 89.488281 334.835938 90.230469 333.351562 91.570312 C 310.589844 112.242188 290.0625 135.664062 269.164062 158.121094 C 242.089844 187.191406 214.871094 216.191406 188.09375 245.488281 C 178.796875 255.675781 170.320312 266.382812 161.542969 276.941406 C 159.683594 276.792969 157.675781 277.683594 157.082031 279.839844 C 155.59375 285.417969 154.550781 290.992188 152.617188 296.496094 C 150.757812 301.851562 148.378906 306.980469 145.625 311.886719 C 143.839844 315.160156 146.816406 318.878906 150.386719 318.058594 C 157.972656 316.199219 165.632812 314.566406 173.21875 312.558594 C 177.011719 311.589844 180.730469 310.328125 184.449219 309.285156 C 187.351562 308.46875 191.8125 307.425781 192.855469 304.230469 C 192.855469 304.15625 192.855469 304.007812 192.855469 303.933594 C 203.34375 299.097656 211.894531 290.027344 220.523438 282.515625 C 236.886719 268.316406 252.578125 253.296875 268.421875 238.5 C 291.773438 216.710938 315.203125 194.777344 337.738281 172.097656 C 337.960938 172.320312 338.183594 172.542969 338.480469 172.695312 C 340.789062 174.925781 343.09375 177.15625 345.25 179.535156 C 345.546875 179.832031 345.769531 180.203125 346.066406 180.5 C 346.214844 180.648438 346.738281 181.394531 346.8125 181.46875 C 347.480469 182.507812 348.074219 183.476562 348.671875 184.515625 C 349.117188 185.332031 349.488281 186.300781 349.933594 187.191406 C 349.414062 187.789062 348.894531 188.53125 348.523438 189.125 C 345.695312 192.621094 342.722656 195.96875 339.597656 199.238281 C 333.574219 205.558594 327.25 211.582031 320.707031 217.382812 C 313.9375 223.328125 306.351562 228.757812 300.625 235.671875 C 300.253906 236.121094 300.625 236.863281 301.21875 236.714844 C 310.964844 234.335938 319.738281 228.164062 327.996094 222.660156 C 336.695312 216.785156 345.101562 210.464844 353.132812 203.699219 C 357 200.503906 362.132812 197.601562 364.660156 193.140625 C 367.5625 188.011719 365.035156 182.953125 362.726562 178.195312 C 359.382812 171.429688 354.324219 166.375 348.894531 161.167969 C 348.820312 161.09375 348.671875 161.019531 348.523438 160.945312 C 352.09375 157.226562 355.738281 153.582031 359.308594 149.792969 C 363.769531 145.105469 370.089844 139.457031 372.171875 133.0625 Z M 311.335938 184.367188 C 280.394531 214.851562 249.230469 245.117188 218.140625 275.453125 C 209.367188 284.003906 200.515625 292.332031 192.855469 301.777344 C 192.707031 301.550781 192.632812 301.328125 192.410156 301.179688 C 191.441406 300.363281 190.476562 299.472656 189.507812 298.652344 C 189.285156 298.503906 189.0625 298.28125 188.839844 298.132812 C 188.765625 298.058594 188.617188 297.984375 188.542969 297.910156 C 188.542969 297.910156 188.390625 297.761719 188.316406 297.761719 C 188.242188 297.6875 188.167969 297.6875 188.167969 297.613281 C 188.019531 297.539062 187.945312 297.390625 187.796875 297.3125 C 187.574219 297.164062 187.351562 296.941406 187.128906 296.792969 C 186.234375 296.050781 185.34375 295.308594 184.523438 294.5625 C 184.078125 294.117188 183.558594 293.746094 183.039062 293.375 C 182.515625 293 181.996094 292.554688 181.402344 292.332031 C 180.359375 292.035156 179.617188 293 179.765625 293.96875 C 179.914062 294.5625 180.285156 295.082031 180.65625 295.605469 C 180.953125 296.125 181.402344 296.644531 181.773438 297.164062 C 182.515625 298.058594 183.261719 298.949219 184.003906 299.84375 C 184.597656 300.585938 185.269531 301.253906 185.9375 301.925781 C 184.75 302.074219 183.632812 302.371094 182.664062 302.519531 C 178.796875 303.261719 174.929688 303.859375 171.0625 304.675781 C 166.378906 305.640625 161.765625 306.832031 157.15625 307.949219 C 158.417969 305.121094 159.609375 302.148438 160.652344 299.246094 C 162.433594 294.117188 164.144531 288.6875 164.890625 283.335938 C 166.453125 284.75 168.011719 286.085938 169.722656 287.277344 C 170.839844 288.019531 171.957031 288.835938 173.144531 289.582031 C 173.816406 290.027344 174.484375 290.546875 175.226562 290.769531 C 175.898438 290.992188 176.566406 291.144531 177.234375 291.367188 C 178.277344 291.664062 179.394531 290.398438 178.722656 289.433594 C 178.351562 288.910156 177.980469 288.316406 177.609375 287.796875 C 177.160156 287.203125 176.566406 286.753906 175.972656 286.234375 C 174.929688 285.269531 173.890625 284.375 172.847656 283.410156 C 170.914062 281.550781 168.757812 279.914062 166.75 278.128906 C 189.210938 259.691406 208.398438 237.902344 228.183594 216.636719 C 232.941406 211.507812 237.628906 206.449219 242.390625 201.320312 C 242.613281 201.542969 242.835938 201.765625 243.058594 201.988281 C 244.917969 203.847656 246.777344 205.78125 248.636719 207.640625 C 250.496094 209.425781 252.28125 211.285156 254.140625 213.070312 C 255.105469 214.035156 256.148438 214.777344 257.191406 215.671875 C 258.304688 216.5625 259.199219 217.457031 260.609375 217.828125 C 261.503906 218.050781 262.246094 217.234375 262.097656 216.339844 C 261.800781 215.003906 260.984375 214.109375 260.164062 213.070312 C 259.347656 212.027344 258.527344 210.914062 257.710938 209.945312 C 255.925781 207.9375 254.140625 206.003906 252.355469 204.070312 C 250.644531 202.136719 248.933594 200.28125 247.148438 198.347656 C 246.851562 197.972656 246.554688 197.675781 246.257812 197.304688 C 263.585938 178.566406 281.0625 159.902344 298.617188 141.390625 C 299.0625 141.761719 299.507812 142.132812 299.957031 142.503906 C 302.039062 144.4375 304.121094 146.371094 306.128906 148.378906 C 308.136719 150.386719 310.070312 152.46875 312.003906 154.550781 C 312.972656 155.664062 314.011719 156.632812 315.054688 157.671875 C 316.09375 158.714844 316.914062 159.457031 318.398438 159.753906 C 318.847656 159.828125 319.292969 159.53125 319.292969 159.085938 C 319.292969 156.335938 317.0625 153.882812 315.351562 151.875 C 313.417969 149.570312 311.410156 147.335938 309.402344 145.179688 C 307.394531 143.023438 305.382812 140.941406 303.226562 138.9375 C 302.855469 138.5625 302.410156 138.191406 302.039062 137.746094 C 302.707031 137.078125 303.375 136.332031 303.972656 135.664062 C 309.847656 140.496094 315.648438 145.40625 321.152344 150.609375 C 324.203125 153.507812 327.101562 156.558594 330.152344 159.382812 C 330.449219 159.679688 331.863281 161.09375 333.425781 162.433594 C 325.988281 169.792969 318.625 177.082031 311.335938 184.367188 Z M 341.308594 154.179688 C 341.234375 152.914062 341.085938 151.652344 340.9375 150.460938 C 340.636719 147.339844 340.117188 144.214844 339.449219 141.167969 C 338.035156 134.847656 335.582031 129.121094 332.308594 123.542969 C 331.863281 122.875 330.597656 123.320312 330.894531 124.140625 C 333.125 129.789062 334.761719 135.8125 335.953125 141.835938 C 336.546875 144.882812 336.917969 148.007812 337.144531 151.128906 C 337.292969 153.507812 337.144531 155.964844 337.292969 158.34375 C 336.996094 158.640625 336.695312 158.9375 336.398438 159.234375 C 335.582031 157.746094 334.761719 156.261719 333.871094 154.847656 C 331.566406 151.203125 328.8125 147.859375 326.136719 144.511719 C 321.449219 138.636719 316.390625 133.210938 310.886719 128.152344 C 319.21875 119.453125 327.621094 110.679688 336.398438 102.425781 C 343.464844 116.554688 347.183594 132.316406 347.183594 148.15625 C 345.25 150.164062 343.242188 152.171875 341.308594 154.179688 Z M 341.828125 105.699219 C 346.515625 109.714844 351.050781 113.953125 355.214844 118.5625 C 357.296875 120.867188 361.539062 124.4375 362.355469 127.335938 C 363.101562 130.234375 361.613281 131.945312 360.050781 134.027344 C 360.867188 132.914062 359.753906 134.324219 359.605469 134.546875 C 356.925781 137.894531 353.953125 141.019531 350.976562 144.140625 C 350.53125 130.832031 347.40625 117.820312 341.828125 105.699219 Z M 341.828125 105.699219 " fill-opacity="1" fill-rule="nonzero"/><path fill="#000000" d="M 279.128906 275.898438 C 278.832031 267.125 279.203125 258.054688 276.75 249.578125 C 276.601562 249.132812 275.933594 249.132812 275.785156 249.578125 C 273.402344 258.054688 273.925781 267.125 273.699219 275.898438 C 273.476562 285.046875 273.402344 294.265625 273.328125 303.410156 C 273.105469 320.8125 272.882812 338.210938 272.734375 355.609375 C 243.503906 356.351562 214.273438 355.757812 185.046875 355.609375 C 144.585938 355.386719 104.125 355.980469 63.664062 356.128906 C 55.484375 356.128906 47.300781 356.203125 39.121094 356.203125 C 35.625 356.203125 32.128906 356.203125 28.707031 356.5 C 28.785156 352.039062 28.113281 347.132812 28.113281 343.785156 C 28.113281 335.234375 28.039062 326.609375 28.039062 318.058594 C 27.964844 296.347656 27.519531 274.636719 27.222656 253 C 26.550781 206.972656 25.957031 160.871094 24.914062 114.84375 C 24.691406 104.507812 24.46875 94.246094 24.023438 83.914062 C 23.949219 82.277344 23.875 80.566406 23.800781 78.855469 C 24.394531 79.152344 25.066406 79.375 25.808594 79.449219 C 41.800781 80.566406 57.789062 81.679688 73.707031 82.796875 C 76.160156 82.945312 78.242188 80.566406 78.167969 78.335938 C 78.09375 68.519531 78.167969 58.707031 78.167969 48.890625 C 78.167969 43.984375 78.019531 39.074219 78.019531 34.167969 C 77.945312 29.707031 78.539062 24.574219 76.679688 20.410156 C 81.367188 20.933594 86.125 21.007812 90.515625 21.007812 C 106.207031 21.230469 121.828125 21.378906 137.519531 21.601562 C 172.105469 22.046875 206.613281 22.566406 241.199219 22.71875 C 250.644531 22.71875 260.015625 22.792969 269.460938 22.71875 C 269.757812 39.597656 270.28125 56.476562 271.023438 73.277344 C 271.394531 82.574219 271.765625 91.792969 272.363281 101.015625 C 272.957031 110.308594 272.4375 120.421875 274.964844 129.417969 C 275.484375 131.128906 278.015625 131.128906 278.460938 129.417969 C 280.988281 120.421875 280.394531 110.308594 280.691406 101.015625 C 280.988281 91.792969 280.914062 82.5 280.914062 73.277344 C 280.914062 54.542969 280.691406 35.804688 280.765625 16.992188 C 280.765625 13.867188 278.164062 11.339844 275.113281 11.339844 C 215.316406 10.746094 155.519531 9.40625 95.722656 8.8125 C 85.382812 8.738281 72.515625 7.546875 63.292969 12.902344 C 62.699219 13.273438 62.402344 13.867188 62.402344 14.464844 C 60.765625 15.28125 59.351562 16.097656 57.789062 17.363281 C 55.632812 19.074219 53.699219 20.859375 51.765625 22.71875 C 47.601562 26.65625 43.433594 30.523438 39.34375 34.613281 C 35.402344 38.554688 31.460938 42.496094 27.519531 46.511719 C 25.585938 48.519531 23.578125 50.527344 21.792969 52.757812 C 20.15625 54.765625 19.1875 56.773438 18.519531 59.300781 C 18.445312 59.449219 18.222656 59.597656 18.222656 59.746094 C 15.542969 74.691406 16.957031 90.902344 17.03125 106.070312 C 17.105469 128.003906 17.03125 150.015625 16.957031 171.949219 C 16.808594 217.828125 16.214844 263.632812 16.140625 309.507812 C 16.140625 319.546875 16.214844 329.660156 16.289062 339.699219 C 16.363281 346.761719 14.355469 357.988281 17.703125 364.308594 C 18.59375 366.019531 20.527344 366.910156 22.460938 366.910156 C 32.949219 370.257812 46.1875 368.25 57.046875 368.175781 C 75.863281 368.027344 94.679688 367.953125 113.570312 367.804688 C 154.105469 367.507812 194.714844 366.910156 235.25 365.648438 C 249.082031 365.203125 262.992188 364.902344 276.824219 364.011719 C 279.054688 363.863281 281.136719 362.226562 281.0625 359.773438 C 280.617188 340.960938 280.246094 322.222656 279.800781 303.410156 C 279.578125 294.265625 279.429688 285.046875 279.128906 275.898438 Z M 64.410156 16.917969 C 65.003906 17.214844 65.523438 17.511719 66.121094 17.808594 C 66.640625 18.703125 67.160156 19.667969 67.679688 20.636719 C 67.980469 21.15625 68.203125 21.75 68.5 22.269531 C 68.648438 22.566406 68.796875 22.867188 68.945312 23.238281 C 69.09375 23.535156 69.09375 23.535156 69.019531 23.386719 C 69.09375 23.535156 69.167969 23.683594 69.242188 23.832031 C 69.613281 24.648438 69.914062 25.542969 70.210938 26.433594 C 70.136719 27.179688 70.136719 27.996094 70.0625 28.738281 C 68.648438 25.765625 67.308594 22.867188 65.894531 19.890625 C 65.523438 19.074219 64.484375 18.777344 63.664062 19 C 63.886719 18.253906 64.113281 17.585938 64.410156 16.917969 Z M 62.101562 21.15625 C 62.175781 21.378906 62.175781 21.601562 62.328125 21.824219 C 63.8125 25.171875 65.300781 28.441406 66.789062 31.789062 C 67.53125 33.425781 68.203125 35.132812 69.019531 36.769531 C 69.242188 37.140625 69.464844 37.515625 69.765625 37.886719 C 69.691406 39.445312 69.691406 41.007812 69.617188 42.644531 C 68.945312 41.601562 68.351562 40.5625 67.679688 39.597656 C 65.972656 36.992188 64.1875 34.464844 62.253906 32.011719 C 61.210938 30.746094 60.242188 29.410156 59.203125 28.144531 C 58.757812 27.550781 58.234375 27.105469 57.714844 26.582031 C 59.351562 24.875 60.839844 23.089844 62.101562 21.15625 Z M 55.558594 29.039062 C 55.78125 29.410156 55.929688 29.78125 56.152344 30.152344 C 57.046875 31.417969 57.863281 32.753906 58.683594 34.019531 C 60.394531 36.695312 62.175781 39.371094 63.8125 42.125 C 65.449219 44.726562 67.085938 47.402344 68.574219 50.15625 C 68.871094 50.601562 69.09375 51.121094 69.390625 51.640625 C 69.316406 56.847656 69.316406 62.125 69.316406 67.332031 C 66.9375 62.644531 64.484375 57.960938 61.953125 53.351562 C 58.308594 46.882812 54.515625 40.710938 50.277344 34.613281 C 51.988281 32.828125 53.773438 30.96875 55.558594 29.039062 Z M 44.921875 40.265625 C 46.039062 39.148438 47.003906 38.035156 48.121094 36.917969 C 53.996094 48.371094 59.945312 59.746094 65.894531 71.195312 C 66.195312 71.71875 66.492188 72.460938 66.789062 73.277344 C 63.589844 73.054688 60.394531 72.757812 57.121094 72.535156 C 55.78125 68.148438 53.996094 63.984375 52.136719 59.820312 C 49.535156 54.019531 46.929688 47.476562 42.765625 42.570312 C 43.507812 41.753906 44.253906 41.007812 44.921875 40.265625 Z M 40.535156 44.800781 C 41.351562 47.253906 42.394531 49.632812 43.433594 51.9375 C 44.921875 55.136719 46.410156 58.257812 47.824219 61.457031 C 49.3125 65.027344 50.648438 68.59375 52.210938 72.089844 C 50.5 71.941406 48.789062 71.867188 47.078125 71.71875 C 46.558594 71.644531 46.113281 71.644531 45.59375 71.570312 C 45.144531 69.933594 44.476562 68.371094 43.882812 66.734375 C 43.136719 64.800781 42.320312 62.871094 41.574219 60.9375 C 39.941406 56.921875 38.378906 52.832031 36.742188 48.816406 C 36.742188 48.742188 36.667969 48.742188 36.667969 48.667969 C 37.855469 47.402344 39.195312 46.066406 40.535156 44.800781 Z M 32.875 52.535156 C 33.023438 52.386719 33.246094 52.160156 33.394531 52.011719 C 34.660156 55.433594 35.996094 58.855469 37.261719 62.199219 C 38.003906 64.132812 38.75 66.066406 39.492188 68.074219 C 39.863281 69.113281 40.238281 70.230469 40.609375 71.347656 C 38.378906 71.195312 36.144531 70.972656 33.914062 70.824219 C 33.691406 70.824219 33.46875 70.75 33.246094 70.75 C 32.800781 69.488281 32.277344 68.148438 31.832031 66.882812 C 31.238281 65.175781 30.566406 63.539062 29.972656 61.828125 C 29.675781 61.011719 29.378906 60.117188 29.082031 59.300781 C 28.785156 58.558594 28.410156 57.960938 27.964844 57.292969 C 29.675781 55.730469 31.3125 54.09375 32.875 52.535156 Z M 22.089844 61.234375 C 23.128906 60.789062 24.171875 60.265625 25.066406 59.671875 C 25.066406 59.894531 25.066406 60.117188 25.140625 60.339844 C 25.4375 61.234375 25.660156 62.199219 25.957031 63.09375 C 26.476562 64.800781 27 66.511719 27.59375 68.222656 C 27.816406 68.890625 28.039062 69.488281 28.261719 70.15625 C 26.476562 70.082031 24.765625 70.15625 23.429688 70.972656 C 23.128906 67.703125 22.757812 64.429688 22.089844 61.234375 Z M 22.089844 61.234375 " fill-opacity="1" fill-rule="nonzero"/><path fill="#000000" d="M 65.671875 159.605469 C 58.308594 159.382812 51.097656 158.863281 43.957031 161.09375 C 41.351562 161.910156 41.351562 165.554688 43.957031 166.296875 C 50.871094 168.378906 57.714844 168.007812 64.855469 167.785156 C 72.441406 167.5625 80.027344 167.339844 87.539062 167.117188 C 94.828125 166.894531 102.117188 166.597656 109.40625 166.375 C 113.050781 166.222656 116.695312 166.148438 120.339844 166 C 123.835938 165.851562 127.480469 166.074219 130.75 164.886719 C 131.867188 164.441406 131.867188 163.027344 130.75 162.582031 C 124.726562 160.277344 116.695312 161.316406 110.222656 161.09375 C 102.636719 160.871094 95.050781 160.574219 87.539062 160.351562 C 80.25 160.054688 72.960938 159.828125 65.671875 159.605469 Z M 65.671875 159.605469 " fill-opacity="1" fill-rule="nonzero"/><path fill="#000000" d="M 180.507812 190.167969 C 170.246094 187.863281 158.792969 188.902344 148.304688 188.679688 C 136.328125 188.457031 124.355469 188.160156 112.457031 187.9375 C 100.925781 187.714844 89.398438 187.492188 77.945312 187.265625 C 66.492188 187.042969 55.335938 186.597656 44.03125 188.753906 C 41.425781 189.273438 41.425781 193.511719 44.03125 193.960938 C 54.890625 195.96875 65.671875 195.667969 76.605469 195.445312 C 88.582031 195.222656 100.554688 195 112.457031 194.777344 C 123.984375 194.554688 135.511719 194.257812 146.964844 194.035156 C 157.824219 193.8125 169.875 195 180.507812 192.546875 C 181.625 192.25 181.625 190.464844 180.507812 190.167969 Z M 180.507812 190.167969 " fill-opacity="1" fill-rule="nonzero"/><path fill="#000000" d="M 180.507812 220.132812 C 181.625 219.835938 181.625 218.125 180.507812 217.828125 C 170.246094 215.449219 158.792969 216.5625 148.304688 216.339844 C 136.328125 216.117188 124.355469 215.820312 112.457031 215.597656 C 100.925781 215.375 89.398438 215.152344 77.945312 214.925781 C 66.492188 214.703125 55.335938 214.257812 44.03125 216.414062 C 41.425781 216.933594 41.425781 221.171875 44.03125 221.621094 C 54.890625 223.628906 65.671875 223.328125 76.605469 223.105469 C 88.582031 222.882812 100.554688 222.660156 112.457031 222.4375 C 123.984375 222.214844 135.511719 221.917969 146.964844 221.695312 C 157.824219 221.398438 169.875 222.585938 180.507812 220.132812 Z M 180.507812 220.132812 " fill-opacity="1" fill-rule="nonzero"/><path fill="#000000" d="M 58.382812 250.691406 C 63.515625 250.46875 68.648438 250.246094 73.855469 250.023438 C 78.988281 249.800781 84.117188 249.503906 89.324219 249.28125 C 92.003906 249.132812 94.679688 248.984375 97.355469 248.910156 C 99.515625 248.835938 101.746094 248.910156 103.679688 247.71875 C 104.421875 247.273438 104.421875 246.15625 103.679688 245.636719 C 101.746094 244.445312 99.515625 244.597656 97.355469 244.445312 C 94.679688 244.296875 92.003906 244.148438 89.324219 244.074219 C 84.191406 243.851562 79.0625 243.554688 73.855469 243.332031 C 68.722656 243.109375 63.589844 242.8125 58.382812 242.664062 C 53.105469 242.441406 48.269531 242.066406 43.285156 244.445312 C 41.5 245.265625 41.5 248.238281 43.285156 249.132812 C 48.269531 251.289062 53.105469 250.992188 58.382812 250.691406 Z M 58.382812 250.691406 " fill-opacity="1" fill-rule="nonzero"/><path fill="#000000" d="M 208.621094 84.878906 C 212.488281 86.960938 216.804688 87.554688 221.117188 86.886719 C 229.597656 85.546875 235.992188 77.964844 236.4375 69.488281 C 236.8125 62.125 232.570312 55.730469 226.324219 52.757812 C 225.804688 52.3125 225.355469 51.863281 224.835938 51.492188 C 222.53125 49.855469 220.226562 49.039062 217.472656 48.742188 C 212.863281 48.148438 208.175781 49.039062 204.308594 51.863281 C 200.8125 54.394531 198.0625 58.109375 197.019531 62.273438 C 195.828125 66.808594 197.167969 71.273438 199.472656 75.210938 C 201.707031 78.929688 204.753906 82.722656 208.621094 84.878906 Z M 206.984375 60.117188 C 208.398438 59.226562 209.441406 58.78125 211.226562 58.480469 C 211.300781 58.480469 211.449219 58.480469 211.597656 58.480469 C 212.117188 58.480469 212.640625 58.40625 213.160156 58.332031 C 213.976562 58.257812 214.796875 58.332031 215.613281 58.40625 C 215.761719 58.480469 216.582031 58.558594 216.582031 58.558594 C 217.101562 58.632812 217.621094 58.855469 218.144531 58.929688 C 219.257812 59.152344 220.226562 59.152344 220.820312 59.226562 C 222.53125 59.449219 224.613281 59.894531 226.324219 59.449219 C 228.257812 61.53125 229.597656 64.207031 229.820312 67.035156 C 230.191406 72.460938 226.917969 78.261719 221.636719 80.046875 C 215.613281 82.054688 210.109375 79.449219 206.390625 74.542969 C 204.53125 72.089844 202.523438 69.113281 202.96875 65.84375 C 203.566406 63.464844 205.125 61.382812 206.984375 60.117188 Z M 206.984375 60.117188 " fill-opacity="1" fill-rule="nonzero"/><path fill="#000000" d="M 242.6875 113.730469 C 241.273438 109.117188 238.96875 104.65625 235.695312 101.015625 C 229.375 93.949219 218.292969 90.753906 209.21875 93.578125 C 199.101562 96.703125 194.121094 106.070312 192.335938 115.886719 C 191.441406 120.792969 189.136719 128.972656 194.640625 131.945312 C 196.722656 133.0625 199.324219 132.914062 201.558594 132.988281 C 203.789062 133.0625 206.019531 133.136719 208.324219 133.136719 C 213.828125 133.285156 219.257812 133.359375 224.761719 133.507812 C 227.515625 133.582031 230.191406 133.65625 232.941406 133.65625 C 235.472656 133.730469 238.296875 134.175781 240.679688 133.210938 C 243.875 131.945312 244.621094 128.601562 242.984375 126.296875 C 244.992188 122.578125 243.949219 117.894531 242.6875 113.730469 Z M 230.265625 123.839844 C 226.472656 123.691406 222.753906 123.617188 218.960938 123.46875 C 215.167969 123.320312 211.375 123.246094 207.582031 123.097656 C 205.871094 123.023438 204.160156 122.949219 202.449219 122.949219 C 202.003906 122.949219 201.558594 122.949219 201.109375 122.949219 C 201.183594 122.355469 201.183594 121.757812 201.257812 121.164062 C 201.40625 119.601562 201.558594 118.042969 201.855469 116.480469 C 202.375 113.507812 203.191406 110.457031 204.753906 107.855469 C 207.730469 102.796875 213.160156 100.640625 218.886719 101.238281 C 224.835938 101.832031 229.96875 105.476562 233.539062 110.234375 C 235.472656 112.835938 236.960938 115.738281 238 118.785156 C 238.519531 120.347656 239.042969 121.90625 239.5625 123.46875 C 239.710938 123.988281 239.933594 124.363281 240.15625 124.734375 C 237.183594 123.617188 233.464844 123.988281 230.265625 123.839844 Z M 230.265625 123.839844 " fill-opacity="1" fill-rule="nonzero"/><path fill="#000000" d="M 107.621094 71.941406 C 109.554688 69.5625 112.230469 67.332031 115.429688 67.183594 C 118.628906 66.957031 121.304688 68.371094 124.058594 69.785156 C 125.023438 70.304688 126.363281 69.636719 126.363281 68.445312 C 126.289062 60.636719 115.875 58.480469 109.925781 60.5625 C 102.042969 63.316406 97.507812 70.75 95.496094 78.484375 C 93.191406 87.257812 91.777344 97.742188 94.308594 106.589844 C 96.464844 114.027344 101.96875 121.238281 109.777344 123.097656 C 113.792969 124.0625 118.183594 123.542969 121.902344 121.683594 C 125.472656 119.902344 129.414062 116.257812 129.265625 111.945312 C 129.191406 108.597656 124.875 106.515625 122.421875 109.117188 C 120.339844 111.273438 119.59375 113.507812 116.546875 114.398438 C 113.867188 115.214844 111.265625 114.695312 108.960938 113.207031 C 102.636719 109.042969 101.523438 100.714844 101.894531 93.800781 C 102.191406 86.664062 102.933594 77.742188 107.621094 71.941406 Z M 107.621094 71.941406 " fill-opacity="1" fill-rule="nonzero"/><path fill="#000000" d="M 156.113281 120.273438 C 159.90625 110.753906 163.253906 101.089844 166.003906 91.199219 C 167.34375 86.441406 168.609375 81.679688 169.722656 76.847656 C 170.246094 74.46875 170.839844 72.015625 171.285156 69.636719 C 171.808594 66.660156 171.65625 64.953125 169.796875 62.570312 C 169.277344 61.902344 168.386719 61.457031 167.566406 61.976562 C 165.410156 63.242188 164.21875 64.503906 163.625 66.957031 C 162.957031 69.488281 162.511719 72.164062 161.914062 74.691406 C 160.800781 79.523438 159.535156 84.285156 158.195312 89.042969 C 156.558594 94.769531 154.699219 100.417969 152.765625 105.996094 C 148.972656 92.238281 145.03125 78.558594 140.046875 65.175781 C 139.007812 62.273438 134.917969 63.390625 135.4375 66.4375 C 138.636719 84.65625 143.46875 102.351562 148.304688 120.199219 C 149.417969 124.4375 154.699219 123.765625 156.113281 120.273438 Z M 156.113281 120.273438 " fill-opacity="1" fill-rule="nonzero"/><path fill="#000000" d="M 45.59375 312.1875 C 49.832031 314.714844 54.589844 314.9375 59.425781 315.457031 C 64.78125 316.125 70.210938 316.648438 75.566406 317.167969 C 80.101562 317.539062 84.714844 318.207031 89.324219 317.613281 C 94.011719 317.019531 97.28125 314.566406 101.449219 312.78125 C 108.4375 309.730469 116.023438 319.398438 122.867188 320.960938 C 129.488281 322.519531 137.222656 320.738281 141.386719 315.234375 C 142.132812 314.269531 140.71875 313.226562 139.824219 313.671875 C 135.957031 315.53125 132.015625 317.242188 127.628906 316.722656 C 123.015625 316.199219 119.742188 313.523438 116.25 310.773438 C 111.042969 306.683594 105.761719 303.261719 98.769531 304.601562 C 94.902344 305.34375 91.777344 307.722656 87.761719 307.949219 C 83.300781 308.171875 78.6875 306.980469 74.300781 306.3125 C 69.613281 305.566406 65.003906 304.972656 60.316406 304.453125 C 55.632812 303.859375 51.171875 302.964844 46.632812 304.378906 C 43.0625 305.34375 42.320312 310.253906 45.59375 312.1875 Z M 45.59375 312.1875 " fill-opacity="1" fill-rule="nonzero"/><path fill="#000000" d="M 236.738281 344.53125 C 235.324219 344.828125 235.621094 346.6875 236.738281 347.058594 C 241.273438 348.769531 245.808594 349.214844 250.570312 349.511719 C 255.332031 349.882812 260.089844 350.179688 264.925781 350.554688 C 266.261719 350.628906 267.453125 349.289062 267.453125 348.023438 C 267.378906 334.046875 266.5625 320.214844 264.402344 306.386719 C 264.105469 304.601562 261.058594 304.972656 261.207031 306.832031 C 262.023438 319.621094 262.542969 332.484375 262.394531 345.273438 C 258.453125 344.902344 254.511719 344.53125 250.644531 344.234375 C 245.808594 343.785156 241.421875 343.5625 236.738281 344.53125 Z M 236.738281 344.53125 " fill-opacity="1" fill-rule="nonzero"/><path fill="#000000" d="M 251.613281 33.5 C 254.363281 33.722656 257.113281 33.945312 259.867188 34.019531 C 259.941406 35.65625 259.941406 37.289062 259.941406 38.925781 C 260.015625 41.527344 260.015625 44.207031 260.089844 46.808594 C 260.164062 49.335938 260.164062 51.863281 260.238281 54.394531 C 260.3125 56.921875 260.835938 59.375 261.207031 61.902344 C 261.355469 62.71875 262.769531 62.71875 262.917969 61.902344 C 263.363281 59.523438 263.957031 57.144531 264.105469 54.765625 C 264.179688 52.238281 264.328125 49.707031 264.402344 47.179688 C 264.476562 44.652344 264.628906 42.125 264.703125 39.597656 C 264.777344 37.140625 264.703125 34.539062 265 32.085938 C 265.148438 30.746094 264.703125 29.113281 263.140625 28.8125 C 259.570312 28.070312 255.851562 27.996094 252.207031 27.699219 C 250.421875 27.550781 248.710938 27.402344 246.925781 27.550781 C 245.140625 27.773438 243.429688 28.21875 241.644531 28.738281 C 240.753906 28.960938 240.457031 30.375 241.347656 30.820312 C 242.835938 31.492188 244.25 32.308594 245.882812 32.679688 C 247.816406 33.203125 249.675781 33.351562 251.613281 33.5 Z M 251.613281 33.5 " fill-opacity="1" fill-rule="nonzero"/><path fill="#000000" d="M 6.097656 132.464844 C 5.726562 121.460938 6.171875 109.9375 4.386719 99.007812 C 4.238281 98.261719 3.050781 98.261719 2.902344 99.007812 C 1.339844 109.492188 1.859375 120.496094 1.710938 131.128906 C 1.488281 143.101562 1.488281 155.070312 1.414062 167.042969 C 1.265625 190.316406 0 214.257812 1.785156 237.457031 C 2.082031 241.175781 7.4375 241.25 7.660156 237.457031 C 9.074219 214.183594 7.4375 190.316406 6.917969 167.042969 C 6.695312 155.515625 6.46875 143.992188 6.097656 132.464844 Z M 6.097656 132.464844 " fill-opacity="1" fill-rule="nonzero"/><path fill="#000000" d="M 5.28125 272.480469 C 5.207031 268.910156 4.984375 265.339844 4.835938 261.773438 C 4.6875 258.5 4.835938 254.707031 3.867188 251.511719 C 3.570312 250.542969 2.15625 250.46875 1.859375 251.511719 C 0.96875 254.707031 1.265625 258.425781 1.265625 261.773438 C 1.265625 265.339844 1.191406 268.910156 1.265625 272.480469 C 1.339844 276.046875 1.414062 279.617188 1.488281 283.1875 C 1.5625 285.789062 0.816406 289.804688 3.273438 291.441406 C 3.496094 291.589844 3.792969 291.589844 4.015625 291.441406 C 6.46875 289.65625 5.578125 285.789062 5.503906 283.1875 C 5.429688 279.617188 5.355469 276.046875 5.28125 272.480469 Z M 5.28125 272.480469 " fill-opacity="1" fill-rule="nonzero"/><path fill="#000000" d="M 19.039062 43.984375 C 19.933594 43.238281 20.824219 42.347656 21.644531 41.527344 C 23.355469 39.894531 24.988281 38.257812 26.625 36.546875 C 28.1875 34.910156 29.824219 33.277344 31.386719 31.640625 C 32.203125 30.746094 32.949219 29.78125 33.691406 28.8125 C 34.363281 27.996094 35.03125 27.179688 35.253906 26.136719 C 35.328125 25.914062 35.105469 25.691406 34.882812 25.765625 C 33.839844 25.988281 33.023438 26.507812 32.128906 27.179688 C 31.164062 27.847656 30.195312 28.589844 29.230469 29.335938 C 27.371094 30.820312 25.660156 32.382812 23.875 33.945312 C 22.164062 35.433594 20.453125 36.917969 18.742188 38.554688 C 17.851562 39.371094 16.957031 40.191406 16.140625 41.007812 C 15.246094 41.902344 15.023438 42.792969 15.023438 44.058594 C 15.023438 44.578125 15.394531 44.949219 15.917969 44.949219 C 17.179688 45.023438 18 44.800781 19.039062 43.984375 Z M 19.039062 43.984375 " fill-opacity="1" fill-rule="nonzero"/><g clip-path="url(#949b989da1)"><path fill="#000000" d="M 38.527344 22.34375 C 38.972656 22.269531 39.417969 22.269531 39.863281 22.195312 C 40.386719 22.046875 40.757812 21.75 41.203125 21.453125 C 42.023438 20.933594 42.765625 20.335938 43.507812 19.816406 C 45.144531 18.628906 46.707031 17.289062 48.269531 15.949219 C 51.320312 13.421875 54.292969 10.820312 57.417969 8.441406 C 57.417969 8.441406 57.417969 8.441406 57.417969 8.367188 C 57.566406 8.292969 57.714844 8.21875 57.863281 8.144531 C 58.609375 7.472656 58.535156 6.210938 57.863281 5.464844 C 57.046875 4.648438 56.003906 4.796875 55.1875 5.464844 C 52.0625 7.921875 49.011719 10.597656 46.039062 13.273438 C 44.550781 14.539062 43.0625 15.800781 41.648438 17.140625 C 40.980469 17.808594 40.238281 18.480469 39.566406 19.148438 C 39.195312 19.519531 38.75 19.816406 38.453125 20.261719 C 38.15625 20.636719 38.082031 21.230469 37.855469 21.675781 C 37.707031 21.898438 38.15625 22.417969 38.527344 22.34375 Z M 38.527344 22.34375 " fill-opacity="1" fill-rule="nonzero"/></g><path fill="#000000" d="M 372.171875 133.0625 C 375 124.363281 367.636719 117.445312 362.355469 111.5 C 355.4375 103.839844 347.628906 97.074219 339.375 90.828125 C 337.589844 89.488281 334.835938 90.230469 333.351562 91.570312 C 310.589844 112.242188 290.0625 135.664062 269.164062 158.121094 C 242.089844 187.191406 214.871094 216.191406 188.09375 245.488281 C 178.796875 255.675781 170.320312 266.382812 161.542969 276.941406 C 159.683594 276.792969 157.675781 277.683594 157.082031 279.839844 C 155.59375 285.417969 154.550781 290.992188 152.617188 296.496094 C 150.757812 301.851562 148.378906 306.980469 145.625 311.886719 C 143.839844 315.160156 146.816406 318.878906 150.386719 318.058594 C 157.972656 316.199219 165.632812 314.566406 173.21875 312.558594 C 177.011719 311.589844 180.730469 310.328125 184.449219 309.285156 C 187.351562 308.46875 191.8125 307.425781 192.855469 304.230469 C 192.855469 304.15625 192.855469 304.007812 192.855469 303.933594 C 203.34375 299.097656 211.894531 290.027344 220.523438 282.515625 C 236.886719 268.316406 252.578125 253.296875 268.421875 238.5 C 291.773438 216.710938 315.203125 194.777344 337.738281 172.097656 C 337.960938 172.320312 338.183594 172.542969 338.480469 172.695312 C 340.789062 174.925781 343.09375 177.15625 345.25 179.535156 C 345.546875 179.832031 345.769531 180.203125 346.066406 180.5 C 346.214844 180.648438 346.738281 181.394531 346.8125 181.46875 C 347.480469 182.507812 348.074219 183.476562 348.671875 184.515625 C 349.117188 185.332031 349.488281 186.300781 349.933594 187.191406 C 349.414062 187.789062 348.894531 188.53125 348.523438 189.125 C 345.695312 192.621094 342.722656 195.96875 339.597656 199.238281 C 333.574219 205.558594 327.25 211.582031 320.707031 217.382812 C 313.9375 223.328125 306.351562 228.757812 300.625 235.671875 C 300.253906 236.121094 300.625 236.863281 301.21875 236.714844 C 310.964844 234.335938 319.738281 228.164062 327.996094 222.660156 C 336.695312 216.785156 345.101562 210.464844 353.132812 203.699219 C 357 200.503906 362.132812 197.601562 364.660156 193.140625 C 367.5625 188.011719 365.035156 182.953125 362.726562 178.195312 C 359.382812 171.429688 354.324219 166.375 348.894531 161.167969 C 348.820312 161.09375 348.671875 161.019531 348.523438 160.945312 C 352.09375 157.226562 355.738281 153.582031 359.308594 149.792969 C 363.769531 145.105469 370.089844 139.457031 372.171875 133.0625 Z M 311.335938 184.367188 C 280.394531 214.851562 249.230469 245.117188 218.140625 275.453125 C 209.367188 284.003906 200.515625 292.332031 192.855469 301.777344 C 192.707031 301.550781 192.632812 301.328125 192.410156 301.179688 C 191.441406 300.363281 190.476562 299.472656 189.507812 298.652344 C 189.285156 298.503906 189.0625 298.28125 188.839844 298.132812 C 188.765625 298.058594 188.617188 297.984375 188.542969 297.910156 C 188.542969 297.910156 188.390625 297.761719 188.316406 297.761719 C 188.242188 297.6875 188.167969 297.6875 188.167969 297.613281 C 188.019531 297.539062 187.945312 297.390625 187.796875 297.3125 C 187.574219 297.164062 187.351562 296.941406 187.128906 296.792969 C 186.234375 296.050781 185.34375 295.308594 184.523438 294.5625 C 184.078125 294.117188 183.558594 293.746094 183.039062 293.375 C 182.515625 293 181.996094 292.554688 181.402344 292.332031 C 180.359375 292.035156 179.617188 293 179.765625 293.96875 C 179.914062 294.5625 180.285156 295.082031 180.65625 295.605469 C 180.953125 296.125 181.402344 296.644531 181.773438 297.164062 C 182.515625 298.058594 183.261719 298.949219 184.003906 299.84375 C 184.597656 300.585938 185.269531 301.253906 185.9375 301.925781 C 184.75 302.074219 183.632812 302.371094 182.664062 302.519531 C 178.796875 303.261719 174.929688 303.859375 171.0625 304.675781 C 166.378906 305.640625 161.765625 306.832031 157.15625 307.949219 C 158.417969 305.121094 159.609375 302.148438 160.652344 299.246094 C 162.433594 294.117188 164.144531 288.6875 164.890625 283.335938 C 166.453125 284.75 168.011719 286.085938 169.722656 287.277344 C 170.839844 288.019531 171.957031 288.835938 173.144531 289.582031 C 173.816406 290.027344 174.484375 290.546875 175.226562 290.769531 C 175.898438 290.992188 176.566406 291.144531 177.234375 291.367188 C 178.277344 291.664062 179.394531 290.398438 178.722656 289.433594 C 178.351562 288.910156 177.980469 288.316406 177.609375 287.796875 C 177.160156 287.203125 176.566406 286.753906 175.972656 286.234375 C 174.929688 285.269531 173.890625 284.375 172.847656 283.410156 C 170.914062 281.550781 168.757812 279.914062 166.75 278.128906 C 189.210938 259.691406 208.398438 237.902344 228.183594 216.636719 C 232.941406 211.507812 237.628906 206.449219 242.390625 201.320312 C 242.613281 201.542969 242.835938 201.765625 243.058594 201.988281 C 244.917969 203.847656 246.777344 205.78125 248.636719 207.640625 C 250.496094 209.425781 252.28125 211.285156 254.140625 213.070312 C 255.105469 214.035156 256.148438 214.777344 257.191406 215.671875 C 258.304688 216.5625 259.199219 217.457031 260.609375 217.828125 C 261.503906 218.050781 262.246094 217.234375 262.097656 216.339844 C 261.800781 215.003906 260.984375 214.109375 260.164062 213.070312 C 259.347656 212.027344 258.527344 210.914062 257.710938 209.945312 C 255.925781 207.9375 254.140625 206.003906 252.355469 204.070312 C 250.644531 202.136719 248.933594 200.28125 247.148438 198.347656 C 246.851562 197.972656 246.554688 197.675781 246.257812 197.304688 C 263.585938 178.566406 281.0625 159.902344 298.617188 141.390625 C 299.0625 141.761719 299.507812 142.132812 299.957031 142.503906 C 302.039062 144.4375 304.121094 146.371094 306.128906 148.378906 C 308.136719 150.386719 310.070312 152.46875 312.003906 154.550781 C 312.972656 155.664062 314.011719 156.632812 315.054688 157.671875 C 316.09375 158.714844 316.914062 159.457031 318.398438 159.753906 C 318.847656 159.828125 319.292969 159.53125 319.292969 159.085938 C 319.292969 156.335938 317.0625 153.882812 315.351562 151.875 C 313.417969 149.570312 311.410156 147.335938 309.402344 145.179688 C 307.394531 143.023438 305.382812 140.941406 303.226562 138.9375 C 302.855469 138.5625 302.410156 138.191406 302.039062 137.746094 C 302.707031 137.078125 303.375 136.332031 303.972656 135.664062 C 309.847656 140.496094 315.648438 145.40625 321.152344 150.609375 C 324.203125 153.507812 327.101562 156.558594 330.152344 159.382812 C 330.449219 159.679688 331.863281 161.09375 333.425781 162.433594 C 325.988281 169.792969 318.625 177.082031 311.335938 184.367188 Z M 341.308594 154.179688 C 341.234375 152.914062 341.085938 151.652344 340.9375 150.460938 C 340.636719 147.339844 340.117188 144.214844 339.449219 141.167969 C 338.035156 134.847656 335.582031 129.121094 332.308594 123.542969 C 331.863281 122.875 330.597656 123.320312 330.894531 124.140625 C 333.125 129.789062 334.761719 135.8125 335.953125 141.835938 C 336.546875 144.882812 336.917969 148.007812 337.144531 151.128906 C 337.292969 153.507812 337.144531 155.964844 337.292969 158.34375 C 336.996094 158.640625 336.695312 158.9375 336.398438 159.234375 C 335.582031 157.746094 334.761719 156.261719 333.871094 154.847656 C 331.566406 151.203125 328.8125 147.859375 326.136719 144.511719 C 321.449219 138.636719 316.390625 133.210938 310.886719 128.152344 C 319.21875 119.453125 327.621094 110.679688 336.398438 102.425781 C 343.464844 116.554688 347.183594 132.316406 347.183594 148.15625 C 345.25 150.164062 343.242188 152.171875 341.308594 154.179688 Z M 341.828125 105.699219 C 346.515625 109.714844 351.050781 113.953125 355.214844 118.5625 C 357.296875 120.867188 361.539062 124.4375 362.355469 127.335938 C 363.101562 130.234375 361.613281 131.945312 360.050781 134.027344 C 360.867188 132.914062 359.753906 134.324219 359.605469 134.546875 C 356.925781 137.894531 353.953125 141.019531 350.976562 144.140625 C 350.53125 130.832031 347.40625 117.820312 341.828125 105.699219 Z M 341.828125 105.699219 " fill-opacity="1" fill-rule="nonzero"/><path fill="#000000" d="M 279.128906 275.898438 C 278.832031 267.125 279.203125 258.054688 276.75 249.578125 C 276.601562 249.132812 275.933594 249.132812 275.785156 249.578125 C 273.402344 258.054688 273.925781 267.125 273.699219 275.898438 C 273.476562 285.046875 273.402344 294.265625 273.328125 303.410156 C 273.105469 320.8125 272.882812 338.210938 272.734375 355.609375 C 243.503906 356.351562 214.273438 355.757812 185.046875 355.609375 C 144.585938 355.386719 104.125 355.980469 63.664062 356.128906 C 55.484375 356.128906 47.300781 356.203125 39.121094 356.203125 C 35.625 356.203125 32.128906 356.203125 28.707031 356.5 C 28.785156 352.039062 28.113281 347.132812 28.113281 343.785156 C 28.113281 335.234375 28.039062 326.609375 28.039062 318.058594 C 27.964844 296.347656 27.519531 274.636719 27.222656 253 C 26.550781 206.972656 25.957031 160.871094 24.914062 114.84375 C 24.691406 104.507812 24.46875 94.246094 24.023438 83.914062 C 23.949219 82.277344 23.875 80.566406 23.800781 78.855469 C 24.394531 79.152344 25.066406 79.375 25.808594 79.449219 C 41.800781 80.566406 57.789062 81.679688 73.707031 82.796875 C 76.160156 82.945312 78.242188 80.566406 78.167969 78.335938 C 78.09375 68.519531 78.167969 58.707031 78.167969 48.890625 C 78.167969 43.984375 78.019531 39.074219 78.019531 34.167969 C 77.945312 29.707031 78.539062 24.574219 76.679688 20.410156 C 81.367188 20.933594 86.125 21.007812 90.515625 21.007812 C 106.207031 21.230469 121.828125 21.378906 137.519531 21.601562 C 172.105469 22.046875 206.613281 22.566406 241.199219 22.71875 C 250.644531 22.71875 260.015625 22.792969 269.460938 22.71875 C 269.757812 39.597656 270.28125 56.476562 271.023438 73.277344 C 271.394531 82.574219 271.765625 91.792969 272.363281 101.015625 C 272.957031 110.308594 272.4375 120.421875 274.964844 129.417969 C 275.484375 131.128906 278.015625 131.128906 278.460938 129.417969 C 280.988281 120.421875 280.394531 110.308594 280.691406 101.015625 C 280.988281 91.792969 280.914062 82.5 280.914062 73.277344 C 280.914062 54.542969 280.691406 35.804688 280.765625 16.992188 C 280.765625 13.867188 278.164062 11.339844 275.113281 11.339844 C 215.316406 10.746094 155.519531 9.40625 95.722656 8.8125 C 85.382812 8.738281 72.515625 7.546875 63.292969 12.902344 C 62.699219 13.273438 62.402344 13.867188 62.402344 14.464844 C 60.765625 15.28125 59.351562 16.097656 57.789062 17.363281 C 55.632812 19.074219 53.699219 20.859375 51.765625 22.71875 C 47.601562 26.65625 43.433594 30.523438 39.34375 34.613281 C 35.402344 38.554688 31.460938 42.496094 27.519531 46.511719 C 25.585938 48.519531 23.578125 50.527344 21.792969 52.757812 C 20.15625 54.765625 19.1875 56.773438 18.519531 59.300781 C 18.445312 59.449219 18.222656 59.597656 18.222656 59.746094 C 15.542969 74.691406 16.957031 90.902344 17.03125 106.070312 C 17.105469 128.003906 17.03125 150.015625 16.957031 171.949219 C 16.808594 217.828125 16.214844 263.632812 16.140625 309.507812 C 16.140625 319.546875 16.214844 329.660156 16.289062 339.699219 C 16.363281 346.761719 14.355469 357.988281 17.703125 364.308594 C 18.59375 366.019531 20.527344 366.910156 22.460938 366.910156 C 32.949219 370.257812 46.1875 368.25 57.046875 368.175781 C 75.863281 368.027344 94.679688 367.953125 113.570312 367.804688 C 154.105469 367.507812 194.714844 366.910156 235.25 365.648438 C 249.082031 365.203125 262.992188 364.902344 276.824219 364.011719 C 279.054688 363.863281 281.136719 362.226562 281.0625 359.773438 C 280.617188 340.960938 280.246094 322.222656 279.800781 303.410156 C 279.578125 294.265625 279.429688 285.046875 279.128906 275.898438 Z M 64.410156 16.917969 C 65.003906 17.214844 65.523438 17.511719 66.121094 17.808594 C 66.640625 18.703125 67.160156 19.667969 67.679688 20.636719 C 67.980469 21.15625 68.203125 21.75 68.5 22.269531 C 68.648438 22.566406 68.796875 22.867188 68.945312 23.238281 C 69.09375 23.535156 69.09375 23.535156 69.019531 23.386719 C 69.09375 23.535156 69.167969 23.683594 69.242188 23.832031 C 69.613281 24.648438 69.914062 25.542969 70.210938 26.433594 C 70.136719 27.179688 70.136719 27.996094 70.0625 28.738281 C 68.648438 25.765625 67.308594 22.867188 65.894531 19.890625 C 65.523438 19.074219 64.484375 18.777344 63.664062 19 C 63.886719 18.253906 64.113281 17.585938 64.410156 16.917969 Z M 62.101562 21.15625 C 62.175781 21.378906 62.175781 21.601562 62.328125 21.824219 C 63.8125 25.171875 65.300781 28.441406 66.789062 31.789062 C 67.53125 33.425781 68.203125 35.132812 69.019531 36.769531 C 69.242188 37.140625 69.464844 37.515625 69.765625 37.886719 C 69.691406 39.445312 69.691406 41.007812 69.617188 42.644531 C 68.945312 41.601562 68.351562 40.5625 67.679688 39.597656 C 65.972656 36.992188 64.1875 34.464844 62.253906 32.011719 C 61.210938 30.746094 60.242188 29.410156 59.203125 28.144531 C 58.757812 27.550781 58.234375 27.105469 57.714844 26.582031 C 59.351562 24.875 60.839844 23.089844 62.101562 21.15625 Z M 55.558594 29.039062 C 55.78125 29.410156 55.929688 29.78125 56.152344 30.152344 C 57.046875 31.417969 57.863281 32.753906 58.683594 34.019531 C 60.394531 36.695312 62.175781 39.371094 63.8125 42.125 C 65.449219 44.726562 67.085938 47.402344 68.574219 50.15625 C 68.871094 50.601562 69.09375 51.121094 69.390625 51.640625 C 69.316406 56.847656 69.316406 62.125 69.316406 67.332031 C 66.9375 62.644531 64.484375 57.960938 61.953125 53.351562 C 58.308594 46.882812 54.515625 40.710938 50.277344 34.613281 C 51.988281 32.828125 53.773438 30.96875 55.558594 29.039062 Z M 44.921875 40.265625 C 46.039062 39.148438 47.003906 38.035156 48.121094 36.917969 C 53.996094 48.371094 59.945312 59.746094 65.894531 71.195312 C 66.195312 71.71875 66.492188 72.460938 66.789062 73.277344 C 63.589844 73.054688 60.394531 72.757812 57.121094 72.535156 C 55.78125 68.148438 53.996094 63.984375 52.136719 59.820312 C 49.535156 54.019531 46.929688 47.476562 42.765625 42.570312 C 43.507812 41.753906 44.253906 41.007812 44.921875 40.265625 Z M 40.535156 44.800781 C 41.351562 47.253906 42.394531 49.632812 43.433594 51.9375 C 44.921875 55.136719 46.410156 58.257812 47.824219 61.457031 C 49.3125 65.027344 50.648438 68.59375 52.210938 72.089844 C 50.5 71.941406 48.789062 71.867188 47.078125 71.71875 C 46.558594 71.644531 46.113281 71.644531 45.59375 71.570312 C 45.144531 69.933594 44.476562 68.371094 43.882812 66.734375 C 43.136719 64.800781 42.320312 62.871094 41.574219 60.9375 C 39.941406 56.921875 38.378906 52.832031 36.742188 48.816406 C 36.742188 48.742188 36.667969 48.742188 36.667969 48.667969 C 37.855469 47.402344 39.195312 46.066406 40.535156 44.800781 Z M 32.875 52.535156 C 33.023438 52.386719 33.246094 52.160156 33.394531 52.011719 C 34.660156 55.433594 35.996094 58.855469 37.261719 62.199219 C 38.003906 64.132812 38.75 66.066406 39.492188 68.074219 C 39.863281 69.113281 40.238281 70.230469 40.609375 71.347656 C 38.378906 71.195312 36.144531 70.972656 33.914062 70.824219 C 33.691406 70.824219 33.46875 70.75 33.246094 70.75 C 32.800781 69.488281 32.277344 68.148438 31.832031 66.882812 C 31.238281 65.175781 30.566406 63.539062 29.972656 61.828125 C 29.675781 61.011719 29.378906 60.117188 29.082031 59.300781 C 28.785156 58.558594 28.410156 57.960938 27.964844 57.292969 C 29.675781 55.730469 31.3125 54.09375 32.875 52.535156 Z M 22.089844 61.234375 C 23.128906 60.789062 24.171875 60.265625 25.066406 59.671875 C 25.066406 59.894531 25.066406 60.117188 25.140625 60.339844 C 25.4375 61.234375 25.660156 62.199219 25.957031 63.09375 C 26.476562 64.800781 27 66.511719 27.59375 68.222656 C 27.816406 68.890625 28.039062 69.488281 28.261719 70.15625 C 26.476562 70.082031 24.765625 70.15625 23.429688 70.972656 C 23.128906 67.703125 22.757812 64.429688 22.089844 61.234375 Z M 22.089844 61.234375 " fill-opacity="1" fill-rule="nonzero"/><path fill="#000000" d="M 65.671875 159.605469 C 58.308594 159.382812 51.097656 158.863281 43.957031 161.09375 C 41.351562 161.910156 41.351562 165.554688 43.957031 166.296875 C 50.871094 168.378906 57.714844 168.007812 64.855469 167.785156 C 72.441406 167.5625 80.027344 167.339844 87.539062 167.117188 C 94.828125 166.894531 102.117188 166.597656 109.40625 166.375 C 113.050781 166.222656 116.695312 166.148438 120.339844 166 C 123.835938 165.851562 127.480469 166.074219 130.75 164.886719 C 131.867188 164.441406 131.867188 163.027344 130.75 162.582031 C 124.726562 160.277344 116.695312 161.316406 110.222656 161.09375 C 102.636719 160.871094 95.050781 160.574219 87.539062 160.351562 C 80.25 160.054688 72.960938 159.828125 65.671875 159.605469 Z M 65.671875 159.605469 " fill-opacity="1" fill-rule="nonzero"/><path fill="#000000" d="M 180.507812 190.167969 C 170.246094 187.863281 158.792969 188.902344 148.304688 188.679688 C 136.328125 188.457031 124.355469 188.160156 112.457031 187.9375 C 100.925781 187.714844 89.398438 187.492188 77.945312 187.265625 C 66.492188 187.042969 55.335938 186.597656 44.03125 188.753906 C 41.425781 189.273438 41.425781 193.511719 44.03125 193.960938 C 54.890625 195.96875 65.671875 195.667969 76.605469 195.445312 C 88.582031 195.222656 100.554688 195 112.457031 194.777344 C 123.984375 194.554688 135.511719 194.257812 146.964844 194.035156 C 157.824219 193.8125 169.875 195 180.507812 192.546875 C 181.625 192.25 181.625 190.464844 180.507812 190.167969 Z M 180.507812 190.167969 " fill-opacity="1" fill-rule="nonzero"/><path fill="#000000" d="M 180.507812 220.132812 C 181.625 219.835938 181.625 218.125 180.507812 217.828125 C 170.246094 215.449219 158.792969 216.5625 148.304688 216.339844 C 136.328125 216.117188 124.355469 215.820312 112.457031 215.597656 C 100.925781 215.375 89.398438 215.152344 77.945312 214.925781 C 66.492188 214.703125 55.335938 214.257812 44.03125 216.414062 C 41.425781 216.933594 41.425781 221.171875 44.03125 221.621094 C 54.890625 223.628906 65.671875 223.328125 76.605469 223.105469 C 88.582031 222.882812 100.554688 222.660156 112.457031 222.4375 C 123.984375 222.214844 135.511719 221.917969 146.964844 221.695312 C 157.824219 221.398438 169.875 222.585938 180.507812 220.132812 Z M 180.507812 220.132812 " fill-opacity="1" fill-rule="nonzero"/><path fill="#000000" d="M 58.382812 250.691406 C 63.515625 250.46875 68.648438 250.246094 73.855469 250.023438 C 78.988281 249.800781 84.117188 249.503906 89.324219 249.28125 C 92.003906 249.132812 94.679688 248.984375 97.355469 248.910156 C 99.515625 248.835938 101.746094 248.910156 103.679688 247.71875 C 104.421875 247.273438 104.421875 246.15625 103.679688 245.636719 C 101.746094 244.445312 99.515625 244.597656 97.355469 244.445312 C 94.679688 244.296875 92.003906 244.148438 89.324219 244.074219 C 84.191406 243.851562 79.0625 243.554688 73.855469 243.332031 C 68.722656 243.109375 63.589844 242.8125 58.382812 242.664062 C 53.105469 242.441406 48.269531 242.066406 43.285156 244.445312 C 41.5 245.265625 41.5 248.238281 43.285156 249.132812 C 48.269531 251.289062 53.105469 250.992188 58.382812 250.691406 Z M 58.382812 250.691406 " fill-opacity="1" fill-rule="nonzero"/><path fill="#000000" d="M 208.621094 84.878906 C 212.488281 86.960938 216.804688 87.554688 221.117188 86.886719 C 229.597656 85.546875 235.992188 77.964844 236.4375 69.488281 C 236.8125 62.125 232.570312 55.730469 226.324219 52.757812 C 225.804688 52.3125 225.355469 51.863281 224.835938 51.492188 C 222.53125 49.855469 220.226562 49.039062 217.472656 48.742188 C 212.863281 48.148438 208.175781 49.039062 204.308594 51.863281 C 200.8125 54.394531 198.0625 58.109375 197.019531 62.273438 C 195.828125 66.808594 197.167969 71.273438 199.472656 75.210938 C 201.707031 78.929688 204.753906 82.722656 208.621094 84.878906 Z M 206.984375 60.117188 C 208.398438 59.226562 209.441406 58.78125 211.226562 58.480469 C 211.300781 58.480469 211.449219 58.480469 211.597656 58.480469 C 212.117188 58.480469 212.640625 58.40625 213.160156 58.332031 C 213.976562 58.257812 214.796875 58.332031 215.613281 58.40625 C 215.761719 58.480469 216.582031 58.558594 216.582031 58.558594 C 217.101562 58.632812 217.621094 58.855469 218.144531 58.929688 C 219.257812 59.152344 220.226562 59.152344 220.820312 59.226562 C 222.53125 59.449219 224.613281 59.894531 226.324219 59.449219 C 228.257812 61.53125 229.597656 64.207031 229.820312 67.035156 C 230.191406 72.460938 226.917969 78.261719 221.636719 80.046875 C 215.613281 82.054688 210.109375 79.449219 206.390625 74.542969 C 204.53125 72.089844 202.523438 69.113281 202.96875 65.84375 C 203.566406 63.464844 205.125 61.382812 206.984375 60.117188 Z M 206.984375 60.117188 " fill-opacity="1" fill-rule="nonzero"/><path fill="#000000" d="M 242.6875 113.730469 C 241.273438 109.117188 238.96875 104.65625 235.695312 101.015625 C 229.375 93.949219 218.292969 90.753906 209.21875 93.578125 C 199.101562 96.703125 194.121094 106.070312 192.335938 115.886719 C 191.441406 120.792969 189.136719 128.972656 194.640625 131.945312 C 196.722656 133.0625 199.324219 132.914062 201.558594 132.988281 C 203.789062 133.0625 206.019531 133.136719 208.324219 133.136719 C 213.828125 133.285156 219.257812 133.359375 224.761719 133.507812 C 227.515625 133.582031 230.191406 133.65625 232.941406 133.65625 C 235.472656 133.730469 238.296875 134.175781 240.679688 133.210938 C 243.875 131.945312 244.621094 128.601562 242.984375 126.296875 C 244.992188 122.578125 243.949219 117.894531 242.6875 113.730469 Z M 230.265625 123.839844 C 226.472656 123.691406 222.753906 123.617188 218.960938 123.46875 C 215.167969 123.320312 211.375 123.246094 207.582031 123.097656 C 205.871094 123.023438 204.160156 122.949219 202.449219 122.949219 C 202.003906 122.949219 201.558594 122.949219 201.109375 122.949219 C 201.183594 122.355469 201.183594 121.757812 201.257812 121.164062 C 201.40625 119.601562 201.558594 118.042969 201.855469 116.480469 C 202.375 113.507812 203.191406 110.457031 204.753906 107.855469 C 207.730469 102.796875 213.160156 100.640625 218.886719 101.238281 C 224.835938 101.832031 229.96875 105.476562 233.539062 110.234375 C 235.472656 112.835938 236.960938 115.738281 238 118.785156 C 238.519531 120.347656 239.042969 121.90625 239.5625 123.46875 C 239.710938 123.988281 239.933594 124.363281 240.15625 124.734375 C 237.183594 123.617188 233.464844 123.988281 230.265625 123.839844 Z M 230.265625 123.839844 " fill-opacity="1" fill-rule="nonzero"/><path fill="#000000" d="M 107.621094 71.941406 C 109.554688 69.5625 112.230469 67.332031 115.429688 67.183594 C 118.628906 66.957031 121.304688 68.371094 124.058594 69.785156 C 125.023438 70.304688 126.363281 69.636719 126.363281 68.445312 C 126.289062 60.636719 115.875 58.480469 109.925781 60.5625 C 102.042969 63.316406 97.507812 70.75 95.496094 78.484375 C 93.191406 87.257812 91.777344 97.742188 94.308594 106.589844 C 96.464844 114.027344 101.96875 121.238281 109.777344 123.097656 C 113.792969 124.0625 118.183594 123.542969 121.902344 121.683594 C 125.472656 119.902344 129.414062 116.257812 129.265625 111.945312 C 129.191406 108.597656 124.875 106.515625 122.421875 109.117188 C 120.339844 111.273438 119.59375 113.507812 116.546875 114.398438 C 113.867188 115.214844 111.265625 114.695312 108.960938 113.207031 C 102.636719 109.042969 101.523438 100.714844 101.894531 93.800781 C 102.191406 86.664062 102.933594 77.742188 107.621094 71.941406 Z M 107.621094 71.941406 " fill-opacity="1" fill-rule="nonzero"/><path fill="#000000" d="M 156.113281 120.273438 C 159.90625 110.753906 163.253906 101.089844 166.003906 91.199219 C 167.34375 86.441406 168.609375 81.679688 169.722656 76.847656 C 170.246094 74.46875 170.839844 72.015625 171.285156 69.636719 C 171.808594 66.660156 171.65625 64.953125 169.796875 62.570312 C 169.277344 61.902344 168.386719 61.457031 167.566406 61.976562 C 165.410156 63.242188 164.21875 64.503906 163.625 66.957031 C 162.957031 69.488281 162.511719 72.164062 161.914062 74.691406 C 160.800781 79.523438 159.535156 84.285156 158.195312 89.042969 C 156.558594 94.769531 154.699219 100.417969 152.765625 105.996094 C 148.972656 92.238281 145.03125 78.558594 140.046875 65.175781 C 139.007812 62.273438 134.917969 63.390625 135.4375 66.4375 C 138.636719 84.65625 143.46875 102.351562 148.304688 120.199219 C 149.417969 124.4375 154.699219 123.765625 156.113281 120.273438 Z M 156.113281 120.273438 " fill-opacity="1" fill-rule="nonzero"/><path fill="#000000" d="M 45.59375 312.1875 C 49.832031 314.714844 54.589844 314.9375 59.425781 315.457031 C 64.78125 316.125 70.210938 316.648438 75.566406 317.167969 C 80.101562 317.539062 84.714844 318.207031 89.324219 317.613281 C 94.011719 317.019531 97.28125 314.566406 101.449219 312.78125 C 108.4375 309.730469 116.023438 319.398438 122.867188 320.960938 C 129.488281 322.519531 137.222656 320.738281 141.386719 315.234375 C 142.132812 314.269531 140.71875 313.226562 139.824219 313.671875 C 135.957031 315.53125 132.015625 317.242188 127.628906 316.722656 C 123.015625 316.199219 119.742188 313.523438 116.25 310.773438 C 111.042969 306.683594 105.761719 303.261719 98.769531 304.601562 C 94.902344 305.34375 91.777344 307.722656 87.761719 307.949219 C 83.300781 308.171875 78.6875 306.980469 74.300781 306.3125 C 69.613281 305.566406 65.003906 304.972656 60.316406 304.453125 C 55.632812 303.859375 51.171875 302.964844 46.632812 304.378906 C 43.0625 305.34375 42.320312 310.253906 45.59375 312.1875 Z M 45.59375 312.1875 " fill-opacity="1" fill-rule="nonzero"/><path fill="#000000" d="M 236.738281 344.53125 C 235.324219 344.828125 235.621094 346.6875 236.738281 347.058594 C 241.273438 348.769531 245.808594 349.214844 250.570312 349.511719 C 255.332031 349.882812 260.089844 350.179688 264.925781 350.554688 C 266.261719 350.628906 267.453125 349.289062 267.453125 348.023438 C 267.378906 334.046875 266.5625 320.214844 264.402344 306.386719 C 264.105469 304.601562 261.058594 304.972656 261.207031 306.832031 C 262.023438 319.621094 262.542969 332.484375 262.394531 345.273438 C 258.453125 344.902344 254.511719 344.53125 250.644531 344.234375 C 245.808594 343.785156 241.421875 343.5625 236.738281 344.53125 Z M 236.738281 344.53125 " fill-opacity="1" fill-rule="nonzero"/><path fill="#000000" d="M 251.613281 33.5 C 254.363281 33.722656 257.113281 33.945312 259.867188 34.019531 C 259.941406 35.65625 259.941406 37.289062 259.941406 38.925781 C 260.015625 41.527344 260.015625 44.207031 260.089844 46.808594 C 260.164062 49.335938 260.164062 51.863281 260.238281 54.394531 C 260.3125 56.921875 260.835938 59.375 261.207031 61.902344 C 261.355469 62.71875 262.769531 62.71875 262.917969 61.902344 C 263.363281 59.523438 263.957031 57.144531 264.105469 54.765625 C 264.179688 52.238281 264.328125 49.707031 264.402344 47.179688 C 264.476562 44.652344 264.628906 42.125 264.703125 39.597656 C 264.777344 37.140625 264.703125 34.539062 265 32.085938 C 265.148438 30.746094 264.703125 29.113281 263.140625 28.8125 C 259.570312 28.070312 255.851562 27.996094 252.207031 27.699219 C 250.421875 27.550781 248.710938 27.402344 246.925781 27.550781 C 245.140625 27.773438 243.429688 28.21875 241.644531 28.738281 C 240.753906 28.960938 240.457031 30.375 241.347656 30.820312 C 242.835938 31.492188 244.25 32.308594 245.882812 32.679688 C 247.816406 33.203125 249.675781 33.351562 251.613281 33.5 Z M 251.613281 33.5 " fill-opacity="1" fill-rule="nonzero"/><path fill="#000000" d="M 6.097656 132.464844 C 5.726562 121.460938 6.171875 109.9375 4.386719 99.007812 C 4.238281 98.261719 3.050781 98.261719 2.902344 99.007812 C 1.339844 109.492188 1.859375 120.496094 1.710938 131.128906 C 1.488281 143.101562 1.488281 155.070312 1.414062 167.042969 C 1.265625 190.316406 0 214.257812 1.785156 237.457031 C 2.082031 241.175781 7.4375 241.25 7.660156 237.457031 C 9.074219 214.183594 7.4375 190.316406 6.917969 167.042969 C 6.695312 155.515625 6.46875 143.992188 6.097656 132.464844 Z M 6.097656 132.464844 " fill-opacity="1" fill-rule="nonzero"/><path fill="#000000" d="M 5.28125 272.480469 C 5.207031 268.910156 4.984375 265.339844 4.835938 261.773438 C 4.6875 258.5 4.835938 254.707031 3.867188 251.511719 C 3.570312 250.542969 2.15625 250.46875 1.859375 251.511719 C 0.96875 254.707031 1.265625 258.425781 1.265625 261.773438 C 1.265625 265.339844 1.191406 268.910156 1.265625 272.480469 C 1.339844 276.046875 1.414062 279.617188 1.488281 283.1875 C 1.5625 285.789062 0.816406 289.804688 3.273438 291.441406 C 3.496094 291.589844 3.792969 291.589844 4.015625 291.441406 C 6.46875 289.65625 5.578125 285.789062 5.503906 283.1875 C 5.429688 279.617188 5.355469 276.046875 5.28125 272.480469 Z M 5.28125 272.480469 " fill-opacity="1" fill-rule="nonzero"/><path fill="#000000" d="M 19.039062 43.984375 C 19.933594 43.238281 20.824219 42.347656 21.644531 41.527344 C 23.355469 39.894531 24.988281 38.257812 26.625 36.546875 C 28.1875 34.910156 29.824219 33.277344 31.386719 31.640625 C 32.203125 30.746094 32.949219 29.78125 33.691406 28.8125 C 34.363281 27.996094 35.03125 27.179688 35.253906 26.136719 C 35.328125 25.914062 35.105469 25.691406 34.882812 25.765625 C 33.839844 25.988281 33.023438 26.507812 32.128906 27.179688 C 31.164062 27.847656 30.195312 28.589844 29.230469 29.335938 C 27.371094 30.820312 25.660156 32.382812 23.875 33.945312 C 22.164062 35.433594 20.453125 36.917969 18.742188 38.554688 C 17.851562 39.371094 16.957031 40.191406 16.140625 41.007812 C 15.246094 41.902344 15.023438 42.792969 15.023438 44.058594 C 15.023438 44.578125 15.394531 44.949219 15.917969 44.949219 C 17.179688 45.023438 18 44.800781 19.039062 43.984375 Z M 19.039062 43.984375 " fill-opacity="1" fill-rule="nonzero"/><g clip-path="url(#b8171e8515)"><path fill="#000000" d="M 38.527344 22.34375 C 38.972656 22.269531 39.417969 22.269531 39.863281 22.195312 C 40.386719 22.046875 40.757812 21.75 41.203125 21.453125 C 42.023438 20.933594 42.765625 20.335938 43.507812 19.816406 C 45.144531 18.628906 46.707031 17.289062 48.269531 15.949219 C 51.320312 13.421875 54.292969 10.820312 57.417969 8.441406 C 57.417969 8.441406 57.417969 8.441406 57.417969 8.367188 C 57.566406 8.292969 57.714844 8.21875 57.863281 8.144531 C 58.609375 7.472656 58.535156 6.210938 57.863281 5.464844 C 57.046875 4.648438 56.003906 4.796875 55.1875 5.464844 C 52.0625 7.921875 49.011719 10.597656 46.039062 13.273438 C 44.550781 14.539062 43.0625 15.800781 41.648438 17.140625 C 40.980469 17.808594 40.238281 18.480469 39.566406 19.148438 C 39.195312 19.519531 38.75 19.816406 38.453125 20.261719 C 38.15625 20.636719 38.082031 21.230469 37.855469 21.675781 C 37.707031 21.898438 38.15625 22.417969 38.527344 22.34375 Z M 38.527344 22.34375 " fill-opacity="1" fill-rule="nonzero"/></g></svg>