<svg xmlns="http://www.w3.org/2000/svg" xmlns:xlink="http://www.w3.org/1999/xlink" width="100" zoomAndPan="magnify" viewBox="0 0 75 74.999997" height="100" preserveAspectRatio="xMidYMid meet" version="1.0"><defs><clipPath id="db8543eb6b"><path d="M 22.5 22.5 L 52.5 22.5 L 52.5 52.5 L 22.5 52.5 Z M 22.5 22.5 " clip-rule="nonzero"/></clipPath><clipPath id="05ef28fff5"><path d="M 22.5 35 L 25 35 L 25 37 L 22.5 37 Z M 22.5 35 " clip-rule="nonzero"/></clipPath><clipPath id="3277c3a90c"><path d="M 22.5 22.5 L 52.5 22.5 L 52.5 52.5 L 22.5 52.5 Z M 22.5 22.5 " clip-rule="nonzero"/></clipPath><clipPath id="77195abb98"><path d="M 22.5 35 L 25 35 L 25 37 L 22.5 37 Z M 22.5 35 " clip-rule="nonzero"/></clipPath></defs><path fill="#000000" d="M 40.65625 48.554688 C 40.65625 48.769531 40.582031 48.957031 40.425781 49.109375 C 40.273438 49.265625 40.085938 49.34375 39.867188 49.34375 C 39.652344 49.34375 39.464844 49.265625 39.308594 49.109375 C 39.15625 48.957031 39.078125 48.769531 39.078125 48.554688 C 39.078125 48.335938 39.15625 48.148438 39.308594 47.996094 C 39.464844 47.839844 39.652344 47.761719 39.867188 47.761719 C 40.085938 47.761719 40.273438 47.839844 40.425781 47.996094 C 40.582031 48.148438 40.65625 48.335938 40.65625 48.554688 Z M 40.65625 48.554688 " fill-opacity="1" fill-rule="nonzero"/><path fill="#000000" d="M 33.320312 32.996094 C 33.011719 32.6875 32.511719 32.6875 32.203125 32.996094 C 31.894531 33.304688 31.894531 33.800781 32.203125 34.109375 L 33.226562 35.132812 L 32.203125 36.152344 C 31.894531 36.460938 31.894531 36.960938 32.203125 37.269531 C 32.503906 37.566406 33.011719 37.578125 33.320312 37.269531 L 34.898438 35.691406 C 35.207031 35.382812 35.207031 34.882812 34.898438 34.574219 Z M 33.320312 32.996094 " fill-opacity="1" fill-rule="nonzero"/><path fill="#000000" d="M 42.796875 32.996094 C 42.488281 32.6875 41.988281 32.6875 41.679688 32.996094 L 40.101562 34.574219 C 39.792969 34.882812 39.792969 35.382812 40.101562 35.691406 L 41.679688 37.269531 C 41.976562 37.566406 42.488281 37.578125 42.796875 37.269531 C 43.105469 36.960938 43.105469 36.460938 42.796875 36.152344 L 41.773438 35.132812 L 42.796875 34.109375 C 43.105469 33.800781 43.105469 33.304688 42.796875 32.996094 Z M 42.796875 32.996094 " fill-opacity="1" fill-rule="nonzero"/><path fill="#000000" d="M 38.539062 32.015625 C 38.121094 31.875 37.679688 32.101562 37.539062 32.511719 L 35.960938 37.25 C 35.824219 37.664062 36.046875 38.109375 36.460938 38.25 C 36.859375 38.382812 37.320312 38.164062 37.460938 37.75 L 39.039062 33.011719 C 39.175781 32.597656 38.953125 32.152344 38.539062 32.015625 Z M 38.539062 32.015625 " fill-opacity="1" fill-rule="nonzero"/><path fill="#000000" d="M 46.980469 26.035156 L 42.214844 28.121094 C 39.300781 26.960938 35.699219 26.960938 32.785156 28.121094 L 28.019531 26.035156 C 27.742188 25.917969 27.425781 25.964844 27.195312 26.15625 C 26.96875 26.351562 26.867188 26.652344 26.9375 26.945312 L 28.113281 31.941406 C 27.527344 32.953125 27.238281 34.027344 27.238281 35.132812 C 27.238281 39.480469 31.839844 43.027344 37.5 43.027344 C 43.160156 43.027344 47.761719 39.480469 47.761719 35.132812 C 47.761719 34.027344 47.472656 32.953125 46.886719 31.941406 L 48.0625 26.945312 C 48.132812 26.652344 48.03125 26.351562 47.804688 26.15625 C 47.574219 25.964844 47.257812 25.917969 46.980469 26.035156 Z M 37.5 41.449219 C 32.707031 41.449219 28.816406 38.613281 28.816406 35.132812 C 28.816406 34.222656 29.085938 33.339844 29.621094 32.496094 C 29.738281 32.320312 29.777344 32.101562 29.722656 31.894531 L 28.832031 28.121094 L 32.464844 29.699219 C 32.660156 29.785156 32.890625 29.785156 33.09375 29.699219 C 35.769531 28.539062 39.230469 28.539062 41.90625 29.699219 C 42.109375 29.785156 42.339844 29.785156 42.535156 29.699219 L 46.167969 28.121094 L 45.277344 31.894531 C 45.222656 32.101562 45.261719 32.320312 45.378906 32.496094 C 45.914062 33.339844 46.183594 34.222656 46.183594 35.132812 C 46.183594 38.613281 42.292969 41.449219 37.5 41.449219 Z M 37.5 41.449219 " fill-opacity="1" fill-rule="nonzero"/><g clip-path="url(#db8543eb6b)"><path fill="#000000" d="M 48.554688 22.5 L 26.445312 22.5 C 24.269531 22.5 22.5 24.269531 22.5 26.445312 L 22.5 32.761719 C 22.5 33.199219 22.855469 33.550781 23.289062 33.550781 C 23.722656 33.550781 24.078125 33.199219 24.078125 32.761719 L 24.078125 26.445312 C 24.078125 25.144531 25.144531 24.078125 26.445312 24.078125 L 48.554688 24.078125 C 49.855469 24.078125 50.921875 25.144531 50.921875 26.445312 L 50.921875 48.554688 C 50.921875 49.855469 49.855469 50.921875 48.554688 50.921875 L 26.445312 50.921875 C 25.144531 50.921875 24.078125 49.855469 24.078125 48.554688 L 24.078125 39.078125 C 24.078125 38.644531 23.722656 38.289062 23.289062 38.289062 C 22.855469 38.289062 22.5 38.644531 22.5 39.078125 L 22.5 48.554688 C 22.5 50.730469 24.269531 52.5 26.445312 52.5 L 48.554688 52.5 C 50.730469 52.5 52.5 50.730469 52.5 48.554688 L 52.5 26.445312 C 52.5 24.269531 50.730469 22.5 48.554688 22.5 Z M 48.554688 22.5 " fill-opacity="1" fill-rule="nonzero"/></g><path fill="#000000" d="M 48.554688 44.605469 L 44.605469 44.605469 C 44.167969 44.605469 43.816406 44.957031 43.816406 45.394531 C 43.816406 45.832031 44.167969 46.183594 44.605469 46.183594 L 48.554688 46.183594 C 48.988281 46.183594 49.34375 45.832031 49.34375 45.394531 C 49.34375 44.957031 48.988281 44.605469 48.554688 44.605469 Z M 48.554688 44.605469 " fill-opacity="1" fill-rule="nonzero"/><path fill="#000000" d="M 48.554688 47.761719 L 43.027344 47.761719 C 42.589844 47.761719 42.238281 48.117188 42.238281 48.554688 C 42.238281 48.988281 42.589844 49.34375 43.027344 49.34375 L 48.554688 49.34375 C 48.988281 49.34375 49.34375 48.988281 49.34375 48.554688 C 49.34375 48.117188 48.988281 47.761719 48.554688 47.761719 Z M 48.554688 47.761719 " fill-opacity="1" fill-rule="nonzero"/><g clip-path="url(#05ef28fff5)"><path fill="#000000" d="M 24.078125 35.921875 C 24.078125 36.140625 24 36.324219 23.847656 36.480469 C 23.691406 36.632812 23.507812 36.710938 23.289062 36.710938 C 23.070312 36.710938 22.886719 36.632812 22.730469 36.480469 C 22.578125 36.324219 22.5 36.140625 22.5 35.921875 C 22.5 35.703125 22.578125 35.515625 22.730469 35.363281 C 22.886719 35.207031 23.070312 35.132812 23.289062 35.132812 C 23.507812 35.132812 23.691406 35.207031 23.847656 35.363281 C 24 35.515625 24.078125 35.703125 24.078125 35.921875 Z M 24.078125 35.921875 " fill-opacity="1" fill-rule="nonzero"/></g><path fill="#000000" d="M 40.65625 48.554688 C 40.65625 48.769531 40.582031 48.957031 40.425781 49.109375 C 40.273438 49.265625 40.085938 49.34375 39.867188 49.34375 C 39.652344 49.34375 39.464844 49.265625 39.308594 49.109375 C 39.15625 48.957031 39.078125 48.769531 39.078125 48.554688 C 39.078125 48.335938 39.15625 48.148438 39.308594 47.996094 C 39.464844 47.839844 39.652344 47.761719 39.867188 47.761719 C 40.085938 47.761719 40.273438 47.839844 40.425781 47.996094 C 40.582031 48.148438 40.65625 48.335938 40.65625 48.554688 Z M 40.65625 48.554688 " fill-opacity="1" fill-rule="nonzero"/><path fill="#000000" d="M 33.320312 32.996094 C 33.011719 32.6875 32.511719 32.6875 32.203125 32.996094 C 31.894531 33.304688 31.894531 33.800781 32.203125 34.109375 L 33.226562 35.132812 L 32.203125 36.152344 C 31.894531 36.460938 31.894531 36.960938 32.203125 37.269531 C 32.503906 37.566406 33.011719 37.578125 33.320312 37.269531 L 34.898438 35.691406 C 35.207031 35.382812 35.207031 34.882812 34.898438 34.574219 Z M 33.320312 32.996094 " fill-opacity="1" fill-rule="nonzero"/><path fill="#000000" d="M 42.796875 32.996094 C 42.488281 32.6875 41.988281 32.6875 41.679688 32.996094 L 40.101562 34.574219 C 39.792969 34.882812 39.792969 35.382812 40.101562 35.691406 L 41.679688 37.269531 C 41.976562 37.566406 42.488281 37.578125 42.796875 37.269531 C 43.105469 36.960938 43.105469 36.460938 42.796875 36.152344 L 41.773438 35.132812 L 42.796875 34.109375 C 43.105469 33.800781 43.105469 33.304688 42.796875 32.996094 Z M 42.796875 32.996094 " fill-opacity="1" fill-rule="nonzero"/><path fill="#000000" d="M 38.539062 32.015625 C 38.121094 31.875 37.679688 32.101562 37.539062 32.511719 L 35.960938 37.25 C 35.824219 37.664062 36.046875 38.109375 36.460938 38.25 C 36.859375 38.382812 37.320312 38.164062 37.460938 37.75 L 39.039062 33.011719 C 39.175781 32.597656 38.953125 32.152344 38.539062 32.015625 Z M 38.539062 32.015625 " fill-opacity="1" fill-rule="nonzero"/><path fill="#000000" d="M 46.980469 26.035156 L 42.214844 28.121094 C 39.300781 26.960938 35.699219 26.960938 32.785156 28.121094 L 28.019531 26.035156 C 27.742188 25.917969 27.425781 25.964844 27.195312 26.15625 C 26.96875 26.351562 26.867188 26.652344 26.9375 26.945312 L 28.113281 31.941406 C 27.527344 32.953125 27.238281 34.027344 27.238281 35.132812 C 27.238281 39.480469 31.839844 43.027344 37.5 43.027344 C 43.160156 43.027344 47.761719 39.480469 47.761719 35.132812 C 47.761719 34.027344 47.472656 32.953125 46.886719 31.941406 L 48.0625 26.945312 C 48.132812 26.652344 48.03125 26.351562 47.804688 26.15625 C 47.574219 25.964844 47.257812 25.917969 46.980469 26.035156 Z M 37.5 41.449219 C 32.707031 41.449219 28.816406 38.613281 28.816406 35.132812 C 28.816406 34.222656 29.085938 33.339844 29.621094 32.496094 C 29.738281 32.320312 29.777344 32.101562 29.722656 31.894531 L 28.832031 28.121094 L 32.464844 29.699219 C 32.660156 29.785156 32.890625 29.785156 33.09375 29.699219 C 35.769531 28.539062 39.230469 28.539062 41.90625 29.699219 C 42.109375 29.785156 42.339844 29.785156 42.535156 29.699219 L 46.167969 28.121094 L 45.277344 31.894531 C 45.222656 32.101562 45.261719 32.320312 45.378906 32.496094 C 45.914062 33.339844 46.183594 34.222656 46.183594 35.132812 C 46.183594 38.613281 42.292969 41.449219 37.5 41.449219 Z M 37.5 41.449219 " fill-opacity="1" fill-rule="nonzero"/><g clip-path="url(#3277c3a90c)"><path fill="#000000" d="M 48.554688 22.5 L 26.445312 22.5 C 24.269531 22.5 22.5 24.269531 22.5 26.445312 L 22.5 32.761719 C 22.5 33.199219 22.855469 33.550781 23.289062 33.550781 C 23.722656 33.550781 24.078125 33.199219 24.078125 32.761719 L 24.078125 26.445312 C 24.078125 25.144531 25.144531 24.078125 26.445312 24.078125 L 48.554688 24.078125 C 49.855469 24.078125 50.921875 25.144531 50.921875 26.445312 L 50.921875 48.554688 C 50.921875 49.855469 49.855469 50.921875 48.554688 50.921875 L 26.445312 50.921875 C 25.144531 50.921875 24.078125 49.855469 24.078125 48.554688 L 24.078125 39.078125 C 24.078125 38.644531 23.722656 38.289062 23.289062 38.289062 C 22.855469 38.289062 22.5 38.644531 22.5 39.078125 L 22.5 48.554688 C 22.5 50.730469 24.269531 52.5 26.445312 52.5 L 48.554688 52.5 C 50.730469 52.5 52.5 50.730469 52.5 48.554688 L 52.5 26.445312 C 52.5 24.269531 50.730469 22.5 48.554688 22.5 Z M 48.554688 22.5 " fill-opacity="1" fill-rule="nonzero"/></g><path fill="#000000" d="M 48.554688 44.605469 L 44.605469 44.605469 C 44.167969 44.605469 43.816406 44.957031 43.816406 45.394531 C 43.816406 45.832031 44.167969 46.183594 44.605469 46.183594 L 48.554688 46.183594 C 48.988281 46.183594 49.34375 45.832031 49.34375 45.394531 C 49.34375 44.957031 48.988281 44.605469 48.554688 44.605469 Z M 48.554688 44.605469 " fill-opacity="1" fill-rule="nonzero"/><path fill="#000000" d="M 48.554688 47.761719 L 43.027344 47.761719 C 42.589844 47.761719 42.238281 48.117188 42.238281 48.554688 C 42.238281 48.988281 42.589844 49.34375 43.027344 49.34375 L 48.554688 49.34375 C 48.988281 49.34375 49.34375 48.988281 49.34375 48.554688 C 49.34375 48.117188 48.988281 47.761719 48.554688 47.761719 Z M 48.554688 47.761719 " fill-opacity="1" fill-rule="nonzero"/><g clip-path="url(#77195abb98)"><path fill="#000000" d="M 24.078125 35.921875 C 24.078125 36.140625 24 36.324219 23.847656 36.480469 C 23.691406 36.632812 23.507812 36.710938 23.289062 36.710938 C 23.070312 36.710938 22.886719 36.632812 22.730469 36.480469 C 22.578125 36.324219 22.5 36.140625 22.5 35.921875 C 22.5 35.703125 22.578125 35.515625 22.730469 35.363281 C 22.886719 35.207031 23.070312 35.132812 23.289062 35.132812 C 23.507812 35.132812 23.691406 35.207031 23.847656 35.363281 C 24 35.515625 24.078125 35.703125 24.078125 35.921875 Z M 24.078125 35.921875 " fill-opacity="1" fill-rule="nonzero"/></g></svg>