<svg xmlns="http://www.w3.org/2000/svg" xmlns:xlink="http://www.w3.org/1999/xlink" width="50" zoomAndPan="magnify" viewBox="0 0 37.5 37.499999" height="50" preserveAspectRatio="xMidYMid meet" version="1.0"><defs><clipPath id="e90d9e52a7"><path d="M 28 17 L 35.476562 17 L 35.476562 26.363281 L 28 26.363281 Z M 28 17 " clip-rule="nonzero"/></clipPath><clipPath id="7c8f4edb16"><path d="M 1.429688 10.820312 L 35 10.820312 L 35 22 L 1.429688 22 Z M 1.429688 10.820312 " clip-rule="nonzero"/></clipPath><clipPath id="4a97bd00dd"><path d="M 28 17 L 35.476562 17 L 35.476562 26.363281 L 28 26.363281 Z M 28 17 " clip-rule="nonzero"/></clipPath><clipPath id="6c734dd98e"><path d="M 1.429688 10.820312 L 35 10.820312 L 35 22 L 1.429688 22 Z M 1.429688 10.820312 " clip-rule="nonzero"/></clipPath></defs><g clip-path="url(#e90d9e52a7)"><path fill="#000000" d="M 28.527344 18.230469 L 28.523438 23.800781 C 28.523438 24.640625 29.136719 25.058594 29.632812 24.6875 L 31.019531 23.648438 L 32.117188 25.773438 C 32.335938 26.195312 32.800781 26.378906 33.160156 26.179688 L 33.972656 25.730469 C 34.328125 25.53125 34.4375 25.035156 34.222656 24.613281 L 33.121094 22.484375 L 34.929688 21.847656 C 35.375 21.691406 35.320312 20.933594 34.636719 20.433594 L 30.097656 17.394531 C 29.371094 16.90625 28.53125 17.246094 28.527344 18.230469 Z M 28.527344 18.230469 " fill-opacity="1" fill-rule="nonzero"/></g><g clip-path="url(#7c8f4edb16)"><path fill="#000000" d="M 6.390625 10.820312 C 3.65625 10.820312 1.511719 13.3125 1.511719 16.292969 C 1.511719 19.277344 3.65625 21.765625 6.390625 21.765625 L 27.152344 21.765625 L 27.152344 20.484375 L 6.390625 20.484375 C 4.414062 20.484375 2.765625 18.664062 2.765625 16.292969 C 2.765625 13.921875 4.414062 12.101562 6.390625 12.101562 L 29.367188 12.101562 C 31.34375 12.101562 32.988281 13.921875 32.988281 16.292969 C 32.988281 16.738281 32.929688 17.191406 32.820312 17.589844 L 33.933594 18.230469 C 33.96875 18.125 34.003906 18.015625 34.035156 17.90625 C 34.175781 17.394531 34.25 16.855469 34.25 16.292969 C 34.25 13.3125 32.101562 10.820312 29.367188 10.820312 Z M 6.390625 10.820312 " fill-opacity="1" fill-rule="evenodd"/></g><path fill="#000000" d="M 6.796875 14.160156 C 6.320312 14.148438 6.003906 14.65625 6.222656 15.089844 L 7.675781 18.070312 C 7.917969 18.566406 8.628906 18.535156 8.828125 18.015625 L 9.378906 16.574219 L 9.929688 18.015625 C 10.125 18.535156 10.839844 18.566406 11.082031 18.070312 L 12.535156 15.089844 C 12.691406 14.773438 12.5625 14.386719 12.25 14.230469 C 11.9375 14.078125 11.558594 14.207031 11.40625 14.523438 L 10.585938 16.199219 L 9.964844 14.578125 C 9.757812 14.035156 9 14.035156 8.789062 14.578125 L 8.171875 16.207031 L 7.347656 14.523438 C 7.246094 14.304688 7.035156 14.167969 6.796875 14.160156 Z M 6.796875 14.160156 " fill-opacity="1" fill-rule="evenodd"/><path fill="#000000" d="M 14.257812 14.160156 C 13.78125 14.148438 13.464844 14.65625 13.683594 15.089844 L 15.136719 18.070312 C 15.382812 18.566406 16.09375 18.535156 16.289062 18.015625 L 16.839844 16.574219 L 17.394531 18.015625 C 17.589844 18.535156 18.300781 18.566406 18.542969 18.070312 L 19.996094 15.089844 C 20.164062 14.773438 20.042969 14.375 19.722656 14.214844 C 19.40625 14.054688 19.019531 14.195312 18.871094 14.523438 L 18.050781 16.207031 L 17.425781 14.578125 C 17.21875 14.035156 16.460938 14.035156 16.253906 14.578125 L 15.632812 16.207031 L 14.808594 14.523438 C 14.710938 14.304688 14.496094 14.167969 14.257812 14.160156 Z M 14.257812 14.160156 " fill-opacity="1" fill-rule="evenodd"/><path fill="#000000" d="M 21.722656 14.160156 C 21.246094 14.148438 20.929688 14.65625 21.148438 15.089844 L 22.601562 18.070312 C 22.84375 18.5625 23.550781 18.527344 23.75 18.015625 L 24.300781 16.574219 L 24.855469 18.015625 C 25.054688 18.527344 25.761719 18.5625 26.003906 18.070312 L 27.457031 15.089844 C 27.625 14.773438 27.503906 14.375 27.183594 14.214844 C 26.863281 14.054688 26.476562 14.195312 26.332031 14.523438 L 25.507812 16.207031 L 24.886719 14.578125 C 24.679688 14.035156 23.921875 14.035156 23.714844 14.578125 L 23.09375 16.199219 L 22.273438 14.523438 C 22.171875 14.304688 21.960938 14.167969 21.722656 14.160156 Z M 21.722656 14.160156 " fill-opacity="1" fill-rule="evenodd"/><g clip-path="url(#4a97bd00dd)"><path fill="#000000" d="M 28.527344 18.230469 L 28.523438 23.800781 C 28.523438 24.640625 29.136719 25.058594 29.632812 24.6875 L 31.019531 23.648438 L 32.117188 25.773438 C 32.335938 26.195312 32.800781 26.378906 33.160156 26.179688 L 33.972656 25.730469 C 34.328125 25.53125 34.4375 25.035156 34.222656 24.613281 L 33.121094 22.484375 L 34.929688 21.847656 C 35.375 21.691406 35.320312 20.933594 34.636719 20.433594 L 30.097656 17.394531 C 29.371094 16.90625 28.53125 17.246094 28.527344 18.230469 Z M 28.527344 18.230469 " fill-opacity="1" fill-rule="nonzero"/></g><g clip-path="url(#6c734dd98e)"><path fill="#000000" d="M 6.390625 10.820312 C 3.65625 10.820312 1.511719 13.3125 1.511719 16.292969 C 1.511719 19.277344 3.65625 21.765625 6.390625 21.765625 L 27.152344 21.765625 L 27.152344 20.484375 L 6.390625 20.484375 C 4.414062 20.484375 2.765625 18.664062 2.765625 16.292969 C 2.765625 13.921875 4.414062 12.101562 6.390625 12.101562 L 29.367188 12.101562 C 31.34375 12.101562 32.988281 13.921875 32.988281 16.292969 C 32.988281 16.738281 32.929688 17.191406 32.820312 17.589844 L 33.933594 18.230469 C 33.96875 18.125 34.003906 18.015625 34.035156 17.90625 C 34.175781 17.394531 34.25 16.855469 34.25 16.292969 C 34.25 13.3125 32.101562 10.820312 29.367188 10.820312 Z M 6.390625 10.820312 " fill-opacity="1" fill-rule="evenodd"/></g><path fill="#000000" d="M 6.796875 14.160156 C 6.320312 14.148438 6.003906 14.65625 6.222656 15.089844 L 7.675781 18.070312 C 7.917969 18.566406 8.628906 18.535156 8.828125 18.015625 L 9.378906 16.574219 L 9.929688 18.015625 C 10.125 18.535156 10.839844 18.566406 11.082031 18.070312 L 12.535156 15.089844 C 12.691406 14.773438 12.5625 14.386719 12.25 14.230469 C 11.9375 14.078125 11.558594 14.207031 11.40625 14.523438 L 10.585938 16.199219 L 9.964844 14.578125 C 9.757812 14.035156 9 14.035156 8.789062 14.578125 L 8.171875 16.207031 L 7.347656 14.523438 C 7.246094 14.304688 7.035156 14.167969 6.796875 14.160156 Z M 6.796875 14.160156 " fill-opacity="1" fill-rule="evenodd"/><path fill="#000000" d="M 14.257812 14.160156 C 13.78125 14.148438 13.464844 14.65625 13.683594 15.089844 L 15.136719 18.070312 C 15.382812 18.566406 16.09375 18.535156 16.289062 18.015625 L 16.839844 16.574219 L 17.394531 18.015625 C 17.589844 18.535156 18.300781 18.566406 18.542969 18.070312 L 19.996094 15.089844 C 20.164062 14.773438 20.042969 14.375 19.722656 14.214844 C 19.40625 14.054688 19.019531 14.195312 18.871094 14.523438 L 18.050781 16.207031 L 17.425781 14.578125 C 17.21875 14.035156 16.460938 14.035156 16.253906 14.578125 L 15.632812 16.207031 L 14.808594 14.523438 C 14.710938 14.304688 14.496094 14.167969 14.257812 14.160156 Z M 14.257812 14.160156 " fill-opacity="1" fill-rule="evenodd"/><path fill="#000000" d="M 21.722656 14.160156 C 21.246094 14.148438 20.929688 14.65625 21.148438 15.089844 L 22.601562 18.070312 C 22.84375 18.5625 23.550781 18.527344 23.75 18.015625 L 24.300781 16.574219 L 24.855469 18.015625 C 25.054688 18.527344 25.761719 18.5625 26.003906 18.070312 L 27.457031 15.089844 C 27.625 14.773438 27.503906 14.375 27.183594 14.214844 C 26.863281 14.054688 26.476562 14.195312 26.332031 14.523438 L 25.507812 16.207031 L 24.886719 14.578125 C 24.679688 14.035156 23.921875 14.035156 23.714844 14.578125 L 23.09375 16.199219 L 22.273438 14.523438 C 22.171875 14.304688 21.960938 14.167969 21.722656 14.160156 Z M 21.722656 14.160156 " fill-opacity="1" fill-rule="evenodd"/></svg>