<svg xmlns="http://www.w3.org/2000/svg" xmlns:xlink="http://www.w3.org/1999/xlink" width="100" zoomAndPan="magnify" viewBox="0 0 75 74.999997" height="100" preserveAspectRatio="xMidYMid meet" version="1.0"><defs><clipPath id="9059be8382"><path d="M 22.5 22.5 L 52.5 22.5 L 52.5 52.5 L 22.5 52.5 Z M 22.5 22.5 " clip-rule="nonzero"/></clipPath><clipPath id="06e03b6ecf"><path d="M 22.5 22.5 L 52.5 22.5 L 52.5 52.5 L 22.5 52.5 Z M 22.5 22.5 " clip-rule="nonzero"/></clipPath></defs><g clip-path="url(#9059be8382)"><path fill="#000000" d="M 27.824219 22.5 L 47.15625 22.5 C 48.632812 22.5 49.96875 23.097656 50.9375 24.0625 C 51.902344 25.03125 52.5 26.367188 52.5 27.824219 L 52.5 47.15625 C 52.5 48.632812 51.902344 49.96875 50.9375 50.9375 C 49.96875 51.902344 48.632812 52.5 47.15625 52.5 L 27.824219 52.5 C 26.367188 52.5 25.03125 51.902344 24.0625 50.9375 C 23.097656 49.96875 22.5 48.632812 22.5 47.15625 L 22.5 27.824219 C 22.5 26.367188 23.097656 25.03125 24.0625 24.0625 C 25.03125 23.097656 26.367188 22.5 27.824219 22.5 Z M 47.15625 24.0625 L 27.824219 24.0625 C 26.789062 24.0625 25.855469 24.484375 25.171875 25.171875 C 24.484375 25.855469 24.0625 26.789062 24.0625 27.824219 L 24.0625 47.15625 C 24.0625 48.195312 24.484375 49.144531 25.171875 49.828125 C 25.855469 50.496094 26.789062 50.9375 27.824219 50.9375 L 47.15625 50.9375 C 48.195312 50.9375 49.144531 50.496094 49.828125 49.828125 C 50.496094 49.144531 50.9375 48.195312 50.9375 47.15625 L 50.9375 27.824219 C 50.9375 26.789062 50.496094 25.855469 49.828125 25.171875 C 49.144531 24.484375 48.195312 24.0625 47.15625 24.0625 Z M 47.15625 24.0625 " fill-opacity="1" fill-rule="nonzero"/></g><path fill="#000000" d="M 27.984375 32.902344 L 30.882812 32.902344 C 31.21875 32.902344 31.515625 33.027344 31.726562 33.238281 C 31.957031 33.449219 32.113281 33.746094 32.113281 34.097656 L 32.113281 47.542969 C 32.113281 47.878906 31.957031 48.195312 31.726562 48.40625 C 31.515625 48.617188 31.21875 48.738281 30.882812 48.738281 L 27.984375 48.738281 C 27.648438 48.738281 27.351562 48.617188 27.140625 48.40625 C 26.894531 48.195312 26.753906 47.878906 26.753906 47.542969 L 26.753906 34.097656 C 26.753906 33.746094 26.894531 33.449219 27.140625 33.238281 C 27.351562 33.027344 27.648438 32.902344 27.984375 32.902344 Z M 30.550781 34.46875 L 28.316406 34.46875 L 28.316406 47.175781 L 30.550781 47.175781 Z M 30.550781 34.46875 " fill-opacity="1" fill-rule="nonzero"/><path fill="#000000" d="M 35.3125 32.867188 L 38.210938 32.867188 C 38.546875 32.867188 38.84375 33.007812 39.054688 33.203125 C 39.300781 33.429688 39.441406 33.730469 39.441406 34.0625 L 39.441406 34.167969 C 40.074219 33.746094 40.796875 33.429688 41.535156 33.253906 C 42.550781 33.007812 43.625 32.992188 44.609375 33.21875 C 45.609375 33.464844 46.542969 33.992188 47.191406 34.820312 C 47.84375 35.609375 48.230469 36.683594 48.230469 38.019531 L 48.230469 47.507812 C 48.230469 47.84375 48.089844 48.140625 47.859375 48.371094 C 47.648438 48.5625 47.351562 48.703125 47.015625 48.703125 L 44.097656 48.703125 C 43.78125 48.703125 43.484375 48.5625 43.253906 48.371094 C 43.027344 48.140625 42.886719 47.84375 42.886719 47.507812 L 42.886719 40.003906 C 42.886719 39.300781 42.484375 38.863281 41.972656 38.667969 C 41.746094 38.582031 41.480469 38.546875 41.234375 38.546875 C 40.972656 38.546875 40.707031 38.597656 40.460938 38.6875 C 39.882812 38.898438 39.441406 39.335938 39.441406 40.003906 L 39.441406 47.542969 C 39.441406 47.878906 39.300781 48.195312 39.054688 48.40625 C 38.84375 48.617188 38.546875 48.738281 38.210938 48.738281 L 35.3125 48.738281 C 34.976562 48.738281 34.679688 48.617188 34.46875 48.40625 C 34.238281 48.195312 34.082031 47.878906 34.082031 47.542969 L 34.082031 34.0625 C 34.082031 33.730469 34.238281 33.429688 34.46875 33.203125 C 34.679688 33.007812 34.976562 32.867188 35.3125 32.867188 Z M 37.878906 34.433594 L 35.644531 34.433594 L 35.644531 47.175781 L 37.878906 47.175781 L 37.878906 40.003906 C 37.878906 38.582031 38.773438 37.632812 39.933594 37.210938 C 40.339844 37.070312 40.777344 37 41.21875 36.980469 C 41.65625 36.980469 42.097656 37.050781 42.515625 37.210938 C 43.605469 37.613281 44.449219 38.527344 44.449219 40.003906 L 44.449219 47.140625 L 46.664062 47.140625 L 46.664062 38.019531 C 46.664062 37.070312 46.402344 36.332031 45.980469 35.804688 C 45.539062 35.257812 44.925781 34.90625 44.238281 34.730469 C 43.5 34.554688 42.691406 34.574219 41.921875 34.765625 C 40.867188 35.03125 39.917969 35.59375 39.300781 36.4375 C 39.160156 36.648438 38.933594 36.769531 38.652344 36.769531 C 38.230469 36.769531 37.878906 36.417969 37.878906 35.996094 Z M 37.878906 34.433594 " fill-opacity="1" fill-rule="nonzero"/><path fill="#000000" d="M 29.425781 26.242188 C 30.214844 26.242188 30.9375 26.578125 31.445312 27.085938 C 31.957031 27.597656 32.273438 28.316406 32.273438 29.089844 C 32.273438 29.882812 31.957031 30.585938 31.445312 31.113281 C 30.9375 31.621094 30.214844 31.9375 29.425781 31.9375 C 28.652344 31.9375 27.929688 31.621094 27.421875 31.113281 C 26.910156 30.585938 26.59375 29.882812 26.59375 29.089844 C 26.59375 28.316406 26.910156 27.597656 27.421875 27.085938 C 27.929688 26.578125 28.652344 26.242188 29.425781 26.242188 Z M 30.339844 28.195312 C 30.109375 27.964844 29.792969 27.824219 29.425781 27.824219 C 29.074219 27.824219 28.757812 27.964844 28.527344 28.195312 C 28.300781 28.421875 28.160156 28.738281 28.160156 29.089844 C 28.160156 29.441406 28.300781 29.777344 28.527344 30.003906 C 28.757812 30.234375 29.074219 30.375 29.425781 30.375 C 29.792969 30.375 30.109375 30.234375 30.339844 30.003906 C 30.566406 29.777344 30.707031 29.441406 30.707031 29.089844 C 30.707031 28.738281 30.566406 28.421875 30.339844 28.195312 Z M 30.339844 28.195312 " fill-opacity="1" fill-rule="nonzero"/><g clip-path="url(#06e03b6ecf)"><path fill="#000000" d="M 27.824219 22.5 L 47.15625 22.5 C 48.632812 22.5 49.96875 23.097656 50.9375 24.0625 C 51.902344 25.03125 52.5 26.367188 52.5 27.824219 L 52.5 47.15625 C 52.5 48.632812 51.902344 49.96875 50.9375 50.9375 C 49.96875 51.902344 48.632812 52.5 47.15625 52.5 L 27.824219 52.5 C 26.367188 52.5 25.03125 51.902344 24.0625 50.9375 C 23.097656 49.96875 22.5 48.632812 22.5 47.15625 L 22.5 27.824219 C 22.5 26.367188 23.097656 25.03125 24.0625 24.0625 C 25.03125 23.097656 26.367188 22.5 27.824219 22.5 Z M 47.15625 24.0625 L 27.824219 24.0625 C 26.789062 24.0625 25.855469 24.484375 25.171875 25.171875 C 24.484375 25.855469 24.0625 26.789062 24.0625 27.824219 L 24.0625 47.15625 C 24.0625 48.195312 24.484375 49.144531 25.171875 49.828125 C 25.855469 50.496094 26.789062 50.9375 27.824219 50.9375 L 47.15625 50.9375 C 48.195312 50.9375 49.144531 50.496094 49.828125 49.828125 C 50.496094 49.144531 50.9375 48.195312 50.9375 47.15625 L 50.9375 27.824219 C 50.9375 26.789062 50.496094 25.855469 49.828125 25.171875 C 49.144531 24.484375 48.195312 24.0625 47.15625 24.0625 Z M 47.15625 24.0625 " fill-opacity="1" fill-rule="nonzero"/></g><path fill="#000000" d="M 27.984375 32.902344 L 30.882812 32.902344 C 31.21875 32.902344 31.515625 33.027344 31.726562 33.238281 C 31.957031 33.449219 32.113281 33.746094 32.113281 34.097656 L 32.113281 47.542969 C 32.113281 47.878906 31.957031 48.195312 31.726562 48.40625 C 31.515625 48.617188 31.21875 48.738281 30.882812 48.738281 L 27.984375 48.738281 C 27.648438 48.738281 27.351562 48.617188 27.140625 48.40625 C 26.894531 48.195312 26.753906 47.878906 26.753906 47.542969 L 26.753906 34.097656 C 26.753906 33.746094 26.894531 33.449219 27.140625 33.238281 C 27.351562 33.027344 27.648438 32.902344 27.984375 32.902344 Z M 30.550781 34.46875 L 28.316406 34.46875 L 28.316406 47.175781 L 30.550781 47.175781 Z M 30.550781 34.46875 " fill-opacity="1" fill-rule="nonzero"/><path fill="#000000" d="M 35.3125 32.867188 L 38.210938 32.867188 C 38.546875 32.867188 38.84375 33.007812 39.054688 33.203125 C 39.300781 33.429688 39.441406 33.730469 39.441406 34.0625 L 39.441406 34.167969 C 40.074219 33.746094 40.796875 33.429688 41.535156 33.253906 C 42.550781 33.007812 43.625 32.992188 44.609375 33.21875 C 45.609375 33.464844 46.542969 33.992188 47.191406 34.820312 C 47.84375 35.609375 48.230469 36.683594 48.230469 38.019531 L 48.230469 47.507812 C 48.230469 47.84375 48.089844 48.140625 47.859375 48.371094 C 47.648438 48.5625 47.351562 48.703125 47.015625 48.703125 L 44.097656 48.703125 C 43.78125 48.703125 43.484375 48.5625 43.253906 48.371094 C 43.027344 48.140625 42.886719 47.84375 42.886719 47.507812 L 42.886719 40.003906 C 42.886719 39.300781 42.484375 38.863281 41.972656 38.667969 C 41.746094 38.582031 41.480469 38.546875 41.234375 38.546875 C 40.972656 38.546875 40.707031 38.597656 40.460938 38.6875 C 39.882812 38.898438 39.441406 39.335938 39.441406 40.003906 L 39.441406 47.542969 C 39.441406 47.878906 39.300781 48.195312 39.054688 48.40625 C 38.84375 48.617188 38.546875 48.738281 38.210938 48.738281 L 35.3125 48.738281 C 34.976562 48.738281 34.679688 48.617188 34.46875 48.40625 C 34.238281 48.195312 34.082031 47.878906 34.082031 47.542969 L 34.082031 34.0625 C 34.082031 33.730469 34.238281 33.429688 34.46875 33.203125 C 34.679688 33.007812 34.976562 32.867188 35.3125 32.867188 Z M 37.878906 34.433594 L 35.644531 34.433594 L 35.644531 47.175781 L 37.878906 47.175781 L 37.878906 40.003906 C 37.878906 38.582031 38.773438 37.632812 39.933594 37.210938 C 40.339844 37.070312 40.777344 37 41.21875 36.980469 C 41.65625 36.980469 42.097656 37.050781 42.515625 37.210938 C 43.605469 37.613281 44.449219 38.527344 44.449219 40.003906 L 44.449219 47.140625 L 46.664062 47.140625 L 46.664062 38.019531 C 46.664062 37.070312 46.402344 36.332031 45.980469 35.804688 C 45.539062 35.257812 44.925781 34.90625 44.238281 34.730469 C 43.5 34.554688 42.691406 34.574219 41.921875 34.765625 C 40.867188 35.03125 39.917969 35.59375 39.300781 36.4375 C 39.160156 36.648438 38.933594 36.769531 38.652344 36.769531 C 38.230469 36.769531 37.878906 36.417969 37.878906 35.996094 Z M 37.878906 34.433594 " fill-opacity="1" fill-rule="nonzero"/><path fill="#000000" d="M 29.425781 26.242188 C 30.214844 26.242188 30.9375 26.578125 31.445312 27.085938 C 31.957031 27.597656 32.273438 28.316406 32.273438 29.089844 C 32.273438 29.882812 31.957031 30.585938 31.445312 31.113281 C 30.9375 31.621094 30.214844 31.9375 29.425781 31.9375 C 28.652344 31.9375 27.929688 31.621094 27.421875 31.113281 C 26.910156 30.585938 26.59375 29.882812 26.59375 29.089844 C 26.59375 28.316406 26.910156 27.597656 27.421875 27.085938 C 27.929688 26.578125 28.652344 26.242188 29.425781 26.242188 Z M 30.339844 28.195312 C 30.109375 27.964844 29.792969 27.824219 29.425781 27.824219 C 29.074219 27.824219 28.757812 27.964844 28.527344 28.195312 C 28.300781 28.421875 28.160156 28.738281 28.160156 29.089844 C 28.160156 29.441406 28.300781 29.777344 28.527344 30.003906 C 28.757812 30.234375 29.074219 30.375 29.425781 30.375 C 29.792969 30.375 30.109375 30.234375 30.339844 30.003906 C 30.566406 29.777344 30.707031 29.441406 30.707031 29.089844 C 30.707031 28.738281 30.566406 28.421875 30.339844 28.195312 Z M 30.339844 28.195312 " fill-opacity="1" fill-rule="nonzero"/></svg>