<svg xmlns="http://www.w3.org/2000/svg" xmlns:xlink="http://www.w3.org/1999/xlink" width="100" zoomAndPan="magnify" viewBox="0 0 75 74.999997" height="100" preserveAspectRatio="xMidYMid meet" version="1.0"><defs><clipPath id="26f93a5c25"><path d="M 22.5 22.5 L 52.5 22.5 L 52.5 52.5 L 22.5 52.5 Z M 22.5 22.5 " clip-rule="nonzero"/></clipPath></defs><path fill="#000000" d="M 43.605469 31.710938 L 41.050781 43.71875 C 40.925781 44.3125 40.21875 44.578125 39.722656 44.222656 L 33.644531 39.699219 L 40.355469 33.632812 C 40.355469 33.632812 40.8125 33.265625 40.683594 33.152344 C 40.546875 33.015625 40.050781 33.316406 39.789062 33.492188 C 39.535156 33.671875 31.574219 38.699219 31.574219 38.699219 L 27.554688 37.4375 C 27.101562 37.296875 27.101562 36.679688 27.757812 36.402344 L 42.59375 30.6875 C 43.222656 30.371094 43.742188 31.105469 43.605469 31.710938 Z M 43.605469 31.710938 " fill-opacity="1" fill-rule="nonzero"/><g clip-path="url(#26f93a5c25)"><path fill="#000000" d="M 37.5 52.5 C 29.234375 52.5 22.5 45.777344 22.5 37.5 C 22.5 29.234375 29.234375 22.5 37.5 22.5 C 45.777344 22.5 52.5 29.234375 52.5 37.5 C 52.5 45.777344 45.777344 52.5 37.5 52.5 Z M 37.5 23.320312 C 29.679688 23.320312 23.320312 29.679688 23.320312 37.5 C 23.320312 45.320312 29.679688 51.679688 37.5 51.679688 C 45.320312 51.679688 51.679688 45.320312 51.679688 37.5 C 51.679688 29.679688 45.320312 23.320312 37.5 23.320312 Z M 37.5 23.320312 " fill-opacity="1" fill-rule="nonzero"/></g></svg>